<svg width="24" height="24" viewBox="0 0 24 24" fill="none" xmlns="http://www.w3.org/2000/svg">
<path d="M0 8.05C0 5.20255 0 3.77882 0.562933 2.69513C1.03731 1.78191 1.78191 1.03731 2.69513 0.562933C3.77882 0 5.20255 0 8.05 0H15.95C18.7975 0 20.2212 0 21.3049 0.562933C22.2181 1.03731 22.9627 1.78191 23.4371 2.69513C24 3.77882 24 5.20255 24 8.05V15.95C24 18.7975 24 20.2212 23.4371 21.3049C22.9627 22.2181 22.2181 22.9627 21.3049 23.4371C20.2212 24 18.7975 24 15.95 24H8.05C5.20255 24 3.77882 24 2.69513 23.4371C1.78191 22.9627 1.03731 22.2181 0.562933 21.3049C0 20.2212 0 18.7975 0 15.95V8.05Z" fill="white"/>
<path d="M0.25 8.05C0.25 6.62208 0.250201 5.56642 0.319509 4.73184C0.388569 3.90026 0.524946 3.31059 0.784786 2.81037C1.23544 1.94282 1.94282 1.23544 2.81037 0.784786C3.31059 0.524946 3.90026 0.388569 4.73184 0.319509C5.56642 0.250201 6.62208 0.25 8.05 0.25H15.95C17.3779 0.25 18.4336 0.250201 19.2682 0.319509C20.0997 0.388569 20.6894 0.524946 21.1896 0.784786C22.0572 1.23544 22.7646 1.94282 23.2152 2.81037C23.4751 3.31059 23.6114 3.90026 23.6805 4.73184C23.7498 5.56642 23.75 6.62208 23.75 8.05V15.95C23.75 17.3779 23.7498 18.4336 23.6805 19.2682C23.6114 20.0997 23.4751 20.6894 23.2152 21.1896C22.7646 22.0572 22.0572 22.7646 21.1896 23.2152C20.6894 23.4751 20.0997 23.6114 19.2682 23.6805C18.4336 23.7498 17.3779 23.75 15.95 23.75H8.05C6.62208 23.75 5.56642 23.7498 4.73184 23.6805C3.90026 23.6114 3.31059 23.4751 2.81037 23.2152C1.94282 22.7646 1.23544 22.0572 0.784786 21.1896C0.524946 20.6894 0.388569 20.0997 0.319509 19.2682C0.250201 18.4336 0.25 17.3779 0.25 15.95V8.05Z" stroke="black" stroke-opacity="0.15" stroke-width="0.5"/>
<path fill-rule="evenodd" clip-rule="evenodd" d="M20.16 12.1932C20.16 11.5905 20.1059 11.011 20.0055 10.4546H12V13.7426H16.5746C16.3775 14.8051 15.7786 15.7053 14.8784 16.308V18.4407H17.6255C19.2327 16.961 20.16 14.7819 20.16 12.1932Z" fill="#4285F4"/>
<path fill-rule="evenodd" clip-rule="evenodd" d="M12.0002 20.5C14.2952 20.5 16.2193 19.7389 17.6257 18.4407L14.8786 16.308C14.1175 16.818 13.1439 17.1193 12.0002 17.1193C9.78635 17.1193 7.91248 15.6241 7.24407 13.615H4.4043V15.8173C5.80294 18.5953 8.67749 20.5 12.0002 20.5Z" fill="#34A853"/>
<path fill-rule="evenodd" clip-rule="evenodd" d="M7.24387 13.6151C7.07387 13.1051 6.97728 12.5603 6.97728 12.0001C6.97728 11.4398 7.07387 10.8951 7.24387 10.3851V8.18278H4.40409C3.82841 9.33028 3.5 10.6285 3.5 12.0001C3.5 13.3716 3.82841 14.6698 4.40409 15.8173L7.24387 13.6151Z" fill="#FBBC05"/>
<path fill-rule="evenodd" clip-rule="evenodd" d="M12.0002 6.88072C13.2482 6.88072 14.3686 7.30958 15.2495 8.15186L17.6875 5.7139C16.2155 4.34231 14.2914 3.50003 12.0002 3.50003C8.67748 3.50003 5.80294 5.40481 4.4043 8.18277L7.24407 10.385C7.91248 8.37595 9.78635 6.88072 12.0002 6.88072Z" fill="#EA4335"/>
</svg>
