<svg width="24" height="24" viewBox="0 0 24 24" fill="none" xmlns="http://www.w3.org/2000/svg">
<g clip-path="url(#clip0_521_5074)">
<path d="M0.0136719 8.05C0.0136719 5.20255 0.0136719 3.77882 0.576605 2.69513C1.05098 1.78191 1.79558 1.03731 2.7088 0.562933C3.79249 0 5.21622 0 8.06367 0H15.9637C18.8111 0 20.2349 0 21.3185 0.562933C22.2318 1.03731 22.9764 1.78191 23.4507 2.69513C24.0137 3.77882 24.0137 5.20255 24.0137 8.05V15.95C24.0137 18.7975 24.0137 20.2212 23.4507 21.3049C22.9764 22.2181 22.2318 22.9627 21.3185 23.4371C20.2349 24 18.8111 24 15.9637 24H8.06367C5.21622 24 3.79249 24 2.7088 23.4371C1.79558 22.9627 1.05098 22.2181 0.576605 21.3049C0.0136719 20.2212 0.0136719 18.7975 0.0136719 15.95V8.05Z" fill="url(#paint0_radial_521_5074)"/>
<path d="M0.0136719 8.05C0.0136719 5.20255 0.0136719 3.77882 0.576605 2.69513C1.05098 1.78191 1.79558 1.03731 2.7088 0.562933C3.79249 0 5.21622 0 8.06367 0H15.9637C18.8111 0 20.2349 0 21.3185 0.562933C22.2318 1.03731 22.9764 1.78191 23.4507 2.69513C24.0137 3.77882 24.0137 5.20255 24.0137 8.05V15.95C24.0137 18.7975 24.0137 20.2212 23.4507 21.3049C22.9764 22.2181 22.2318 22.9627 21.3185 23.4371C20.2349 24 18.8111 24 15.9637 24H8.06367C5.21622 24 3.79249 24 2.7088 23.4371C1.79558 22.9627 1.05098 22.2181 0.576605 21.3049C0.0136719 20.2212 0.0136719 18.7975 0.0136719 15.95V8.05Z" fill="url(#paint1_radial_521_5074)"/>
<path d="M12.0002 3.27273C9.63009 3.27273 9.33264 3.28309 8.40176 3.32546C7.4727 3.368 6.83853 3.51509 6.28364 3.73091C5.70966 3.95382 5.22277 4.252 4.73769 4.73727C4.25225 5.22236 3.95408 5.70927 3.73045 6.28309C3.51409 6.83818 3.36682 7.47255 3.325 8.40127C3.28337 9.33218 3.27246 9.62982 3.27246 12C3.27246 14.3702 3.28301 14.6667 3.32519 15.5976C3.36791 16.5267 3.515 17.1609 3.73063 17.7158C3.95371 18.2898 4.25189 18.7767 4.73714 19.2618C5.22204 19.7473 5.70893 20.0462 6.28255 20.2691C6.83781 20.4849 7.47215 20.632 8.40103 20.6745C9.33191 20.7169 9.62918 20.7273 11.9991 20.7273C14.3694 20.7273 14.6659 20.7169 15.5968 20.6745C16.5259 20.632 17.1608 20.4849 17.716 20.2691C18.2898 20.0462 18.776 19.7473 19.2609 19.2618C19.7463 18.7767 20.0445 18.2898 20.2681 17.716C20.4827 17.1609 20.6299 16.5265 20.6736 15.5978C20.7154 14.6669 20.7263 14.3702 20.7263 12C20.7263 9.62982 20.7154 9.33236 20.6736 8.40145C20.6299 7.47236 20.4827 6.83818 20.2681 6.28327C20.0445 5.70927 19.7463 5.22236 19.2609 4.73727C18.7754 4.25182 18.29 3.95364 17.7155 3.73091C17.1591 3.51509 16.5246 3.368 15.5955 3.32546C14.6647 3.28309 14.3683 3.27273 11.9975 3.27273H12.0002ZM11.2173 4.84546C11.4497 4.84509 11.7089 4.84546 12.0002 4.84546C14.3303 4.84546 14.6065 4.85382 15.5266 4.89564C16.3775 4.93455 16.8393 5.07673 17.1469 5.19618C17.5542 5.35436 17.8446 5.54345 18.1498 5.84891C18.4553 6.15436 18.6444 6.44527 18.8029 6.85255C18.9223 7.15982 19.0647 7.62164 19.1034 8.47255C19.1453 9.39255 19.1543 9.66891 19.1543 11.998C19.1543 14.3271 19.1453 14.6035 19.1034 15.5235C19.0645 16.3744 18.9223 16.8362 18.8029 17.1435C18.6447 17.5507 18.4553 17.8407 18.1498 18.146C17.8444 18.4515 17.5544 18.6405 17.1469 18.7987C16.8397 18.9187 16.3775 19.0605 15.5266 19.0995C14.6067 19.1413 14.3303 19.1504 12.0002 19.1504C9.6699 19.1504 9.39373 19.1413 8.47376 19.0995C7.62287 19.0602 7.16107 18.918 6.85326 18.7985C6.446 18.6404 6.1551 18.4513 5.84966 18.1458C5.54421 17.8404 5.35513 17.5502 5.19658 17.1427C5.07713 16.8355 4.93477 16.3736 4.89605 15.5227C4.85423 14.6027 4.84587 14.3264 4.84587 11.9958C4.84587 9.66527 4.85423 9.39036 4.89605 8.47036C4.93496 7.61946 5.07713 7.15764 5.19658 6.85C5.35476 6.44273 5.54421 6.15182 5.84966 5.84636C6.1551 5.54091 6.446 5.35182 6.85326 5.19327C7.16089 5.07327 7.62287 4.93146 8.47376 4.89236C9.27882 4.856 9.59082 4.84509 11.2173 4.84327V4.84546ZM16.6586 6.29455C16.0804 6.29455 15.6114 6.76309 15.6114 7.34145C15.6114 7.91964 16.0804 8.38873 16.6586 8.38873C17.2368 8.38873 17.7058 7.91964 17.7058 7.34145C17.7058 6.76327 17.2368 6.29418 16.6586 6.29418V6.29455ZM12.0002 7.51818C9.52518 7.51818 7.51851 9.52491 7.51851 12C7.51851 14.4751 9.52518 16.4809 12.0002 16.4809C14.4752 16.4809 16.4812 14.4751 16.4812 12C16.4812 9.52491 14.475 7.51818 12 7.51818H12.0002ZM12.0002 9.09091C13.6067 9.09091 14.9092 10.3933 14.9092 12C14.9092 13.6065 13.6067 14.9091 12.0002 14.9091C10.3935 14.9091 9.09119 13.6065 9.09119 12C9.09119 10.3933 10.3935 9.09091 12.0002 9.09091Z" fill="white"/>
</g>
<defs>
<radialGradient id="paint0_radial_521_5074" cx="0" cy="0" r="1" gradientUnits="userSpaceOnUse" gradientTransform="translate(6.3887 25.8485) rotate(-90) scale(23.7858 22.1226)">
<stop stop-color="#FFDD55"/>
<stop offset="0.1" stop-color="#FFDD55"/>
<stop offset="0.5" stop-color="#FF543E"/>
<stop offset="1" stop-color="#C837AB"/>
</radialGradient>
<radialGradient id="paint1_radial_521_5074" cx="0" cy="0" r="1" gradientUnits="userSpaceOnUse" gradientTransform="translate(-4.00646 1.72892) rotate(78.6806) scale(10.6323 43.827)">
<stop stop-color="#3771C8"/>
<stop offset="0.128" stop-color="#3771C8"/>
<stop offset="1" stop-color="#6600FF" stop-opacity="0"/>
</radialGradient>
<clipPath id="clip0_521_5074">
<rect width="24" height="24" fill="white"/>
</clipPath>
</defs>
</svg>
