<svg width="24" height="24" viewBox="0 0 24 24" fill="none" xmlns="http://www.w3.org/2000/svg">
<path d="M0 8.05C0 5.20255 0 3.77882 0.562933 2.69513C1.03731 1.78191 1.78191 1.03731 2.69513 0.562933C3.77882 0 5.20255 0 8.05 0H15.95C18.7975 0 20.2212 0 21.3049 0.562933C22.2181 1.03731 22.9627 1.78191 23.4371 2.69513C24 3.77882 24 5.20255 24 8.05V15.95C24 18.7975 24 20.2212 23.4371 21.3049C22.9627 22.2181 22.2181 22.9627 21.3049 23.4371C20.2212 24 18.7975 24 15.95 24H8.05C5.20255 24 3.77882 24 2.69513 23.4371C1.78191 22.9627 1.03731 22.2181 0.562933 21.3049C0 20.2212 0 18.7975 0 15.95V8.05Z" fill="#1EA1F2"/>
<path fill-rule="evenodd" clip-rule="evenodd" d="M18.6611 9.07611C18.6669 9.22601 18.6689 9.37585 18.6689 9.52575C18.6689 14.0705 15.4719 19.3171 9.62564 19.3171C7.82978 19.3171 6.1599 18.7448 4.75293 17.7704C5.00164 17.7977 5.25422 17.8181 5.51068 17.8181C6.99969 17.8181 8.37113 17.2661 9.45898 16.3395C8.06816 16.319 6.89375 15.3174 6.48871 13.9547C6.68316 13.9955 6.8834 14.016 7.08818 14.016C7.37694 14.016 7.6573 13.9752 7.92603 13.8934C6.47061 13.58 5.37438 12.1901 5.37438 10.5207C5.37438 10.5003 5.37438 10.4934 5.37438 10.4798C5.80331 10.7319 6.29426 10.8885 6.81557 10.909C5.96157 10.2889 5.4002 9.23281 5.4002 8.04041C5.4002 7.41355 5.55653 6.82073 5.83172 6.3097C7.3989 8.39469 9.74192 9.76427 12.3834 9.90736C12.3291 9.65525 12.3013 9.38958 12.3013 9.12385C12.3013 7.22282 13.7244 5.68289 15.4802 5.68289C16.3943 5.68289 17.2199 6.09859 17.7994 6.76633C18.5248 6.61643 19.2044 6.33027 19.8194 5.93508C19.581 6.7391 19.0778 7.41351 18.4201 7.83596C19.0636 7.7542 19.6773 7.57037 20.2464 7.29782C19.8194 7.98601 19.2819 8.59233 18.6611 9.07611Z" fill="white"/>
</svg>
