<svg width="14" height="17" viewBox="0 0 14 17" fill="none" xmlns="http://www.w3.org/2000/svg">
<path d="M6.9987 8.5013C6.08203 8.5013 5.33203 7.7513 5.33203 6.83464C5.33203 5.91797 6.08203 5.16797 6.9987 5.16797C7.91536 5.16797 8.66536 5.91797 8.66536 6.83464C8.66536 7.7513 7.91536 8.5013 6.9987 8.5013ZM11.9987 7.0013C11.9987 3.9763 9.79036 1.83464 6.9987 1.83464C4.20703 1.83464 1.9987 3.9763 1.9987 7.0013C1.9987 8.9513 3.6237 11.5346 6.9987 14.618C10.3737 11.5346 11.9987 8.9513 11.9987 7.0013ZM6.9987 0.167969C10.4987 0.167969 13.6654 2.8513 13.6654 7.0013C13.6654 9.76797 11.4404 13.043 6.9987 16.8346C2.55703 13.043 0.332031 9.76797 0.332031 7.0013C0.332031 2.8513 3.4987 0.167969 6.9987 0.167969Z" fill="white"/>
</svg>
