<svg width="20" height="21" viewBox="0 0 20 21" fill="none" xmlns="http://www.w3.org/2000/svg">
<path d="M9.9987 10.5013C9.08203 10.5013 8.33203 9.7513 8.33203 8.83464C8.33203 7.91797 9.08203 7.16797 9.9987 7.16797C10.9154 7.16797 11.6654 7.91797 11.6654 8.83464C11.6654 9.7513 10.9154 10.5013 9.9987 10.5013ZM14.9987 9.0013C14.9987 5.9763 12.7904 3.83464 9.9987 3.83464C7.20703 3.83464 4.9987 5.9763 4.9987 9.0013C4.9987 10.9513 6.6237 13.5346 9.9987 16.618C13.3737 13.5346 14.9987 10.9513 14.9987 9.0013ZM9.9987 2.16797C13.4987 2.16797 16.6654 4.8513 16.6654 9.0013C16.6654 11.768 14.4404 15.043 9.9987 18.8346C5.55703 15.043 3.33203 11.768 3.33203 9.0013C3.33203 4.8513 6.4987 2.16797 9.9987 2.16797Z" fill="#111827"/>
</svg>
