<svg width="56" height="56" viewBox="0 0 56 56" fill="none" xmlns="http://www.w3.org/2000/svg">
<rect width="56" height="56" rx="8" fill="#F9D423"/>
<path d="M42.6673 28L39.414 24.28L39.8673 19.36L35.054 18.2667L32.534 14L28.0007 15.9467L23.4673 14L20.9473 18.2533L16.134 19.3333L16.5873 24.2667L13.334 28L16.5873 31.72L16.134 36.6533L20.9473 37.7467L23.4673 42L28.0007 40.04L32.534 41.9867L35.054 37.7333L39.8673 36.64L39.414 31.72L42.6673 28ZM25.454 34.2933L20.3873 29.2133L22.3607 27.24L25.454 30.3467L33.254 22.52L35.2273 24.4933L25.454 34.2933Z" fill="white"/>
</svg>
