<svg width="56" height="56" viewBox="0 0 56 56" fill="none" xmlns="http://www.w3.org/2000/svg">
<rect width="56" height="56" rx="8" fill="#00D2FF"/>
<path d="M17.334 32.6673C17.334 35.2407 19.4273 37.334 22.0007 37.334L20.0007 39.334V40.0006H36.0007V39.334L34.0007 37.334C36.574 37.334 38.6673 35.2407 38.6673 32.6673V18.6673C38.6673 14.0007 33.894 13.334 28.0007 13.334C22.1073 13.334 17.334 14.0007 17.334 18.6673V32.6673ZM28.0007 34.6673C26.534 34.6673 25.334 33.4673 25.334 32.0007C25.334 30.534 26.534 29.334 28.0007 29.334C29.4673 29.334 30.6673 30.534 30.6673 32.0007C30.6673 33.4673 29.4673 34.6673 28.0007 34.6673ZM36.0007 25.334H20.0007V18.6673H36.0007V25.334Z" fill="white"/>
</svg>
