<svg width="48" height="48" viewBox="0 0 48 48" fill="none" xmlns="http://www.w3.org/2000/svg">
<rect width="48" height="48" rx="10" fill="#0FD200"/>
<path d="M32.5 23H31V19C31 17.9 30.1 17 29 17H25V15.5C25 14.12 23.88 13 22.5 13C21.12 13 20 14.12 20 15.5V17H16C14.9 17 14.01 17.9 14.01 19V22.8H15.5C16.99 22.8 18.2 24.01 18.2 25.5C18.2 26.99 16.99 28.2 15.5 28.2H14V32C14 33.1 14.9 34 16 34H19.8V32.5C19.8 31.01 21.01 29.8 22.5 29.8C23.99 29.8 25.2 31.01 25.2 32.5V34H29C30.1 34 31 33.1 31 32V28H32.5C33.88 28 35 26.88 35 25.5C35 24.12 33.88 23 32.5 23Z" fill="white"/>
</svg>
