<svg width="123" height="24" viewBox="0 0 123 24" fill="none" xmlns="http://www.w3.org/2000/svg">
<line x1="2" y1="2" x2="2" y2="19.2512" stroke="url(#paint0_linear_521_3905)" stroke-width="4" stroke-linecap="round"/>
<line x1="12.625" y1="4.125" x2="12.625" y2="17.126" stroke="url(#paint1_linear_521_3905)" stroke-width="4" stroke-linecap="round"/>
<line x1="23.25" y1="6.25" x2="23.25" y2="15.0007" stroke="url(#paint2_linear_521_3905)" stroke-width="4" stroke-linecap="round"/>
<path d="M43.3956 15.0404C43.3956 14.5838 43.3195 14.1767 43.1673 13.8191C43.0152 13.4614 42.764 13.1418 42.414 12.8603C42.0716 12.5711 41.6074 12.3048 41.0215 12.0613C40.4431 11.8102 39.7202 11.5629 38.8528 11.3194C38.0233 11.0835 37.2738 10.8248 36.6042 10.5432C35.9345 10.2617 35.36 9.93825 34.8806 9.573C34.4088 9.20774 34.0474 8.78161 33.7963 8.2946C33.5451 7.79998 33.4196 7.22547 33.4196 6.57105C33.4196 5.93185 33.5566 5.34973 33.8305 4.82467C34.1044 4.29962 34.4887 3.84685 34.9833 3.46638C35.4856 3.0859 36.0753 2.79294 36.7525 2.58748C37.4374 2.38203 38.1869 2.2793 39.0012 2.2793C40.1654 2.2793 41.1699 2.49997 42.0145 2.94132C42.8668 3.38267 43.525 3.98002 43.9892 4.73336C44.461 5.47909 44.6969 6.31613 44.6969 7.24449H43.2929C43.2929 6.52159 43.1217 5.87859 42.7793 5.31549C42.4444 4.74477 41.9574 4.29962 41.3182 3.98002C40.6867 3.65281 39.9143 3.48921 39.0012 3.48921C38.088 3.48921 37.3195 3.62998 36.6955 3.91153C36.0791 4.18548 35.6111 4.55454 35.2915 5.01871C34.9795 5.47528 34.8235 5.98512 34.8235 6.54822C34.8235 6.94392 34.8996 7.30917 35.0518 7.64399C35.204 7.9712 35.4513 8.27938 35.7937 8.56854C36.1438 8.8501 36.6042 9.11643 37.1749 9.36754C37.7456 9.61104 38.4495 9.84313 39.2865 10.0638C40.1692 10.3073 40.953 10.5775 41.6378 10.8742C42.3227 11.171 42.901 11.5134 43.3728 11.9015C43.8446 12.282 44.2022 12.7271 44.4457 13.237C44.6892 13.7468 44.811 14.3403 44.811 15.0176C44.811 15.6948 44.6664 16.3036 44.3773 16.8439C44.0957 17.3765 43.6962 17.8293 43.1788 18.2022C42.6689 18.575 42.064 18.8604 41.3639 19.0582C40.6714 19.2561 39.9143 19.355 39.0925 19.355C38.3543 19.355 37.62 19.2599 36.8895 19.0696C36.159 18.8794 35.4894 18.5864 34.8806 18.1907C34.2795 17.7874 33.7963 17.27 33.431 16.6384C33.0734 16.0068 32.8945 15.2535 32.8945 14.3784H34.2871C34.2871 15.0785 34.4278 15.6682 34.7094 16.1476C34.9909 16.627 35.3638 17.0151 35.828 17.3119C36.2998 17.6086 36.8172 17.8255 37.3803 17.9625C37.951 18.0918 38.5218 18.1565 39.0925 18.1565C39.9676 18.1565 40.7247 18.0271 41.3639 17.7684C42.0107 17.5097 42.5091 17.1482 42.8592 16.6841C43.2168 16.2123 43.3956 15.6644 43.3956 15.0404Z" fill="#111827"/>
<path d="M49.0457 6.77651V19.1267H47.6874V6.77651H49.0457ZM47.4477 3.20385C47.4477 2.94513 47.5276 2.72826 47.6874 2.55324C47.8548 2.37061 48.0831 2.2793 48.3722 2.2793C48.6614 2.2793 48.8897 2.37061 49.0571 2.55324C49.2321 2.72826 49.3196 2.94513 49.3196 3.20385C49.3196 3.45496 49.2321 3.67183 49.0571 3.85446C48.8897 4.02948 48.6614 4.11699 48.3722 4.11699C48.0831 4.11699 47.8548 4.02948 47.6874 3.85446C47.5276 3.67183 47.4477 3.45496 47.4477 3.20385Z" fill="#111827"/>
<path d="M57.4466 6.77651V7.8951H51.26V6.77651H57.4466ZM53.5315 3.60335H54.8898V16.1248C54.8898 16.6955 54.9659 17.1254 55.1181 17.4146C55.2702 17.7037 55.4681 17.8978 55.7116 17.9967C55.9551 18.0956 56.2176 18.1451 56.4992 18.1451C56.7046 18.1451 56.9025 18.1337 57.0927 18.1108C57.283 18.0804 57.4542 18.05 57.6064 18.0195L57.6634 19.1724C57.496 19.2256 57.2792 19.2675 57.0128 19.2979C56.7465 19.336 56.4802 19.355 56.2138 19.355C55.6888 19.355 55.2246 19.2599 54.8213 19.0696C54.418 18.8718 54.1022 18.537 53.8739 18.0652C53.6456 17.5858 53.5315 16.9352 53.5315 16.1134V3.60335Z" fill="#111827"/>
<path d="M65.0827 19.355C64.2761 19.355 63.5342 19.2066 62.8569 18.9098C62.1873 18.6131 61.6013 18.1946 61.0991 17.6543C60.6045 17.114 60.2202 16.4748 59.9463 15.7367C59.68 14.991 59.5468 14.1767 59.5468 13.294V12.8032C59.5468 11.852 59.6876 10.9922 59.9691 10.2236C60.2507 9.45505 60.6387 8.79683 61.1334 8.24895C61.628 7.70106 62.1911 7.28254 62.8227 6.99338C63.4619 6.69661 64.1315 6.54822 64.8316 6.54822C65.6154 6.54822 66.3116 6.689 66.9204 6.97055C67.5291 7.24449 68.039 7.63638 68.4499 8.14622C68.8684 8.64844 69.1842 9.24579 69.3973 9.93825C69.6103 10.6231 69.7169 11.3803 69.7169 12.2097V13.0429H60.3686V11.8787H68.3586V11.7189C68.3434 11.0264 68.2026 10.3796 67.9363 9.77845C67.6775 9.16969 67.2894 8.67508 66.772 8.2946C66.2546 7.91413 65.6077 7.72389 64.8316 7.72389C64.2533 7.72389 63.7206 7.84564 63.2336 8.08915C62.7542 8.33265 62.3395 8.68269 61.9894 9.13926C61.647 9.58822 61.3807 10.1247 61.1904 10.7487C61.0078 11.365 60.9165 12.0499 60.9165 12.8032V13.294C60.9165 13.9789 61.0154 14.6181 61.2133 15.2116C61.4187 15.7976 61.7079 16.315 62.0807 16.764C62.4612 17.2129 62.9102 17.563 63.4276 17.8141C63.9451 18.0652 64.5158 18.1907 65.1398 18.1907C65.8703 18.1907 66.5171 18.0576 67.0802 17.7913C67.6433 17.5173 68.1493 17.0874 68.5983 16.5014L69.4543 17.1635C69.188 17.5592 68.8532 17.9244 68.4499 18.2592C68.0542 18.5941 67.5786 18.8604 67.0231 19.0582C66.4676 19.2561 65.8208 19.355 65.0827 19.355Z" fill="#111827"/>
<path d="M82.7177 16.8553V19.1267H74.3739V16.8553H82.7177ZM75.1729 2.50758V19.1267H72.3079V2.50758H75.1729Z" fill="#111827"/>
<path d="M84.1331 13.0886V12.8261C84.1331 11.9357 84.2624 11.1101 84.5211 10.3492C84.7799 9.58061 85.1527 8.91478 85.6397 8.35167C86.1344 7.78096 86.7355 7.33961 87.4432 7.02762C88.1585 6.70802 88.9651 6.54822 89.863 6.54822C90.7685 6.54822 91.5751 6.70802 92.2828 7.02762C92.9981 7.33961 93.6031 7.78096 94.0977 8.35167C94.5923 8.91478 94.969 9.58061 95.2277 10.3492C95.4864 11.1101 95.6158 11.9357 95.6158 12.8261V13.0886C95.6158 13.9789 95.4864 14.8045 95.2277 15.5655C94.969 16.3264 94.5923 16.9923 94.0977 17.563C93.6031 18.1261 93.0019 18.5674 92.2942 18.887C91.5866 19.199 90.7838 19.355 89.8858 19.355C88.9803 19.355 88.1699 19.199 87.4546 18.887C86.7469 18.5674 86.1458 18.1261 85.6512 17.563C85.1565 16.9923 84.7799 16.3264 84.5211 15.5655C84.2624 14.8045 84.1331 13.9789 84.1331 13.0886ZM86.8839 12.8261V13.0886C86.8839 13.6441 86.941 14.1691 87.0551 14.6637C87.1693 15.1584 87.3481 15.5921 87.5916 15.965C87.8351 16.3378 88.1471 16.6308 88.5275 16.8439C88.908 17.0569 89.3608 17.1635 89.8858 17.1635C90.3957 17.1635 90.837 17.0569 91.2099 16.8439C91.5904 16.6308 91.9024 16.3378 92.1459 15.965C92.3894 15.5921 92.5682 15.1584 92.6823 14.6637C92.8041 14.1691 92.865 13.6441 92.865 13.0886V12.8261C92.865 12.2782 92.8041 11.7607 92.6823 11.2737C92.5682 10.7791 92.3856 10.3416 92.1344 9.96108C91.8909 9.58061 91.579 9.28384 91.1985 9.07077C90.8256 8.8501 90.3805 8.73976 89.863 8.73976C89.3456 8.73976 88.8966 8.8501 88.5161 9.07077C88.1433 9.28384 87.8351 9.58061 87.5916 9.96108C87.3481 10.3416 87.1693 10.7791 87.0551 11.2737C86.941 11.7607 86.8839 12.2782 86.8839 12.8261Z" fill="#111827"/>
<path d="M105.832 6.77651H108.331V18.7843C108.331 19.8953 108.095 20.8389 107.624 21.615C107.152 22.3912 106.494 22.9809 105.649 23.3842C104.804 23.7951 103.826 24.0006 102.715 24.0006C102.244 24.0006 101.719 23.9321 101.14 23.7951C100.57 23.6582 100.014 23.4375 99.4738 23.1331C98.9411 22.8363 98.496 22.4445 98.1383 21.9574L99.4281 20.3366C99.8695 20.8617 100.357 21.246 100.889 21.4895C101.422 21.733 101.981 21.8547 102.567 21.8547C103.199 21.8547 103.735 21.7368 104.176 21.5009C104.625 21.2726 104.972 20.934 105.215 20.485C105.459 20.0361 105.58 19.4882 105.58 18.8414V9.573L105.832 6.77651ZM97.4421 13.0886V12.8489C97.4421 11.9129 97.5562 11.0607 97.7845 10.2921C98.0128 9.51593 98.34 8.8501 98.7661 8.2946C99.1923 7.7315 99.7097 7.30156 100.318 7.00479C100.927 6.70041 101.616 6.54822 102.384 6.54822C103.183 6.54822 103.864 6.6928 104.428 6.98196C104.998 7.27113 105.474 7.68584 105.854 8.22612C106.235 8.75878 106.532 9.39798 106.745 10.1437C106.965 10.8818 107.129 11.7037 107.235 12.6092V13.3739C107.137 14.2566 106.969 15.0632 106.733 15.7938C106.497 16.5243 106.185 17.1559 105.797 17.6885C105.409 18.2212 104.93 18.6321 104.359 18.9213C103.796 19.2104 103.13 19.355 102.362 19.355C101.608 19.355 100.927 19.199 100.318 18.887C99.7173 18.575 99.1999 18.1375 98.7661 17.5744C98.34 17.0113 98.0128 16.3493 97.7845 15.5883C97.5562 14.8197 97.4421 13.9865 97.4421 13.0886ZM100.193 12.8489V13.0886C100.193 13.6517 100.246 14.1767 100.353 14.6637C100.467 15.1508 100.638 15.5807 100.866 15.9536C101.102 16.3188 101.399 16.608 101.757 16.821C102.122 17.0265 102.552 17.1292 103.046 17.1292C103.693 17.1292 104.222 16.9923 104.633 16.7183C105.052 16.4444 105.371 16.0753 105.592 15.6111C105.82 15.1393 105.98 14.6143 106.071 14.036V11.97C106.026 11.521 105.93 11.1025 105.786 10.7144C105.649 10.3263 105.462 9.98771 105.227 9.69855C104.991 9.40178 104.694 9.1735 104.336 9.0137C103.979 8.84629 103.556 8.76259 103.069 8.76259C102.575 8.76259 102.145 8.86912 101.779 9.08218C101.414 9.29525 101.114 9.58822 100.878 9.96108C100.649 10.3339 100.478 10.7677 100.364 11.2623C100.25 11.7569 100.193 12.2858 100.193 12.8489Z" fill="#111827"/>
<path d="M110.66 13.0886V12.8261C110.66 11.9357 110.789 11.1101 111.048 10.3492C111.307 9.58061 111.679 8.91478 112.166 8.35167C112.661 7.78096 113.262 7.33961 113.97 7.02762C114.685 6.70802 115.492 6.54822 116.39 6.54822C117.295 6.54822 118.102 6.70802 118.81 7.02762C119.525 7.33961 120.13 7.78096 120.624 8.35167C121.119 8.91478 121.496 9.58061 121.754 10.3492C122.013 11.1101 122.142 11.9357 122.142 12.8261V13.0886C122.142 13.9789 122.013 14.8045 121.754 15.5655C121.496 16.3264 121.119 16.9923 120.624 17.563C120.13 18.1261 119.529 18.5674 118.821 18.887C118.113 19.199 117.31 19.355 116.413 19.355C115.507 19.355 114.697 19.199 113.981 18.887C113.274 18.5674 112.672 18.1261 112.178 17.563C111.683 16.9923 111.307 16.3264 111.048 15.5655C110.789 14.8045 110.66 13.9789 110.66 13.0886ZM113.411 12.8261V13.0886C113.411 13.6441 113.468 14.1691 113.582 14.6637C113.696 15.1584 113.875 15.5921 114.118 15.965C114.362 16.3378 114.674 16.6308 115.054 16.8439C115.435 17.0569 115.887 17.1635 116.413 17.1635C116.922 17.1635 117.364 17.0569 117.737 16.8439C118.117 16.6308 118.429 16.3378 118.673 15.965C118.916 15.5921 119.095 15.1584 119.209 14.6637C119.331 14.1691 119.392 13.6441 119.392 13.0886V12.8261C119.392 12.2782 119.331 11.7607 119.209 11.2737C119.095 10.7791 118.912 10.3416 118.661 9.96108C118.418 9.58061 118.106 9.28384 117.725 9.07077C117.352 8.8501 116.907 8.73976 116.39 8.73976C115.872 8.73976 115.423 8.8501 115.043 9.07077C114.67 9.28384 114.362 9.58061 114.118 9.96108C113.875 10.3416 113.696 10.7791 113.582 11.2737C113.468 11.7607 113.411 12.2782 113.411 12.8261Z" fill="#111827"/>
<defs>
<linearGradient id="paint0_linear_521_3905" x1="-0.5" y1="0" x2="-0.5" y2="21.2512" gradientUnits="userSpaceOnUse">
<stop stop-color="#EC008C"/>
<stop offset="1" stop-color="#FC6767"/>
</linearGradient>
<linearGradient id="paint1_linear_521_3905" x1="10.125" y1="2.125" x2="10.125" y2="19.126" gradientUnits="userSpaceOnUse">
<stop stop-color="#E65C00"/>
<stop offset="1" stop-color="#F9D423"/>
</linearGradient>
<linearGradient id="paint2_linear_521_3905" x1="20.75" y1="4.25" x2="20.75" y2="17.0007" gradientUnits="userSpaceOnUse">
<stop stop-color="#00D2FF"/>
<stop offset="1" stop-color="#3A7BD5"/>
</linearGradient>
</defs>
</svg>
