<svg width="151" height="171" viewBox="0 0 151 171" fill="none" xmlns="http://www.w3.org/2000/svg">
<g filter="url(#filter0_d_592_4352)">
<rect x="20" y="23.293" width="90" height="90" rx="45" transform="rotate(-15 20 23.293)" fill="#FDBE44"/>
</g>
<path d="M95.6771 49.0003C96.7467 52.9924 96.6086 57.212 95.2801 61.1255C93.9516 65.0391 91.4925 68.4708 88.2137 70.9867C84.9348 73.5026 80.9836 74.9898 76.8596 75.2601C72.7355 75.5304 68.624 74.5717 65.0448 72.5053C61.4656 70.4388 58.5796 67.3575 56.7517 63.6508C54.9237 59.9441 54.236 55.7787 54.7755 51.6811C55.3149 47.5836 57.0573 43.7381 59.7823 40.6308C62.5073 37.5236 66.0925 35.2941 70.0846 34.2245L75.4929 54.4086L95.6771 49.0003Z" fill="white"/>
<path d="M72.3577 30.2878C75.0084 29.5776 77.7729 29.3964 80.4936 29.7545C83.2142 30.1127 85.8377 31.0033 88.2142 32.3753C90.5906 33.7474 92.6736 35.5741 94.3441 37.7512C96.0146 39.9282 97.24 42.413 97.9502 45.0636L77.7661 50.472L72.3577 30.2878Z" fill="white"/>
<defs>
<filter id="filter0_d_592_4352" x="0.102539" y="10.1016" width="150.022" height="160.022" filterUnits="userSpaceOnUse" color-interpolation-filters="sRGB">
<feFlood flood-opacity="0" result="BackgroundImageFix"/>
<feColorMatrix in="SourceAlpha" type="matrix" values="0 0 0 0 0 0 0 0 0 0 0 0 0 0 0 0 0 0 127 0" result="hardAlpha"/>
<feMorphology radius="20" operator="erode" in="SourceAlpha" result="effect1_dropShadow_592_4352"/>
<feOffset dy="40"/>
<feGaussianBlur stdDeviation="25"/>
<feColorMatrix type="matrix" values="0 0 0 0 0.621289 0 0 0 0 0.423455 0 0 0 0 0.466979 0 0 0 0.2 0"/>
<feBlend mode="normal" in2="BackgroundImageFix" result="effect1_dropShadow_592_4352"/>
<feBlend mode="normal" in="SourceGraphic" in2="effect1_dropShadow_592_4352" result="shape"/>
</filter>
</defs>
</svg>
