<svg width="62" height="62" viewBox="0 0 62 62" fill="none" xmlns="http://www.w3.org/2000/svg">
<rect width="62" height="62" rx="31" fill="#FEBB0B" fill-opacity="0.15"/>
<path d="M34.9298 27.2647C33.8074 28.4339 32.4337 29.0264 30.8473 29.0264C29.2612 29.0264 27.8877 28.4337 26.7651 27.2649C25.6425 26.0959 25.0734 24.6654 25.0734 23.013C25.0734 21.361 25.6425 19.9305 26.7649 18.7615C27.8874 17.5926 29.2607 17 30.8473 17C32.4335 17 33.807 17.5926 34.9296 18.7614C36.0522 19.9307 36.6212 21.3612 36.6212 23.013C36.6212 24.6654 36.0522 26.0957 34.9298 27.2647Z" fill="#FFB803"/>
<path d="M40.7573 34.6538C40.8537 35.2142 40.9192 35.7449 40.9515 36.2314C40.9835 36.7068 40.9998 37.203 41 37.706C41 39.0099 40.6022 40.0651 39.8176 40.8427C39.0427 41.6107 38.0179 42 36.7713 42H25.2287C23.9821 42 22.9569 41.6105 22.1822 40.8427C21.3978 40.0645 21 39.0095 21 37.7062C21 37.2055 21.0161 36.7096 21.0479 36.2319C21.0803 35.7443 21.1458 35.2134 21.2421 34.6538C21.3394 34.0892 21.4647 33.5557 21.6145 33.0679C21.7696 32.5633 21.9803 32.0656 22.2406 31.5884C22.5105 31.0934 22.8282 30.6623 23.1843 30.3073C23.5572 29.9356 24.0135 29.6372 24.5406 29.4198C25.0661 29.2031 25.6484 29.0932 26.2717 29.0932C26.5164 29.0932 26.7532 29.1977 27.2097 29.5076C27.4952 29.7014 27.8244 29.9223 28.1882 30.1644C28.5019 30.3728 28.9273 30.568 29.4522 30.7446C29.9654 30.9174 30.4857 31.005 30.9995 31.005C31.5132 31.005 32.0337 30.9174 32.5464 30.7446C33.0718 30.5678 33.4972 30.3726 33.8112 30.1642C34.1785 29.9198 34.5075 29.6989 34.7888 29.5078C35.2458 29.1979 35.4825 29.0934 35.7272 29.0934C36.3503 29.0934 36.9328 29.2031 37.4585 29.4196C37.9859 29.6374 38.4421 29.9358 38.8146 30.3071C39.1709 30.6619 39.4884 31.0932 39.7587 31.5884C40.0191 32.0656 40.2298 32.5635 40.3848 33.0677C40.5347 33.5555 40.66 34.0892 40.7573 34.6538Z" fill="#FFB803"/>
</svg>
