<svg width="23" height="22" viewBox="0 0 23 22" fill="none" xmlns="http://www.w3.org/2000/svg">
<path d="M4.36031 18.0566C4.32477 18.085 4.27376 18.1029 4.20154 18.114C3.91838 18.1584 3.73209 18.0671 3.51943 17.8615C2.66479 17.0357 1.50979 17.1579 0.79558 18.1232C0.642536 18.33 0.550824 18.5738 0.478601 18.8268C0.45338 18.9151 0.455673 19.033 0.333008 19.0515C0.414402 19.0009 0.393194 18.9046 0.413256 18.8293C0.617888 18.0442 1.07931 17.5252 1.81129 17.3227C2.53066 17.124 3.15774 17.3499 3.66559 17.9233C3.78138 18.0529 3.8771 18.0942 4.03244 18.0609C4.13218 18.0387 4.23879 18.0553 4.36031 18.0566Z" fill="#FEFEFE" stroke="black" stroke-width="0.2"/>
<path d="M5.22381 6.94373C2.93158 6.6413 0.825069 8.42498 0.540189 10.8826C0.384278 12.2256 0.711576 13.4353 1.54788 14.4648C2.21279 15.2832 3.04335 15.7905 4.04187 15.9732C4.42419 16.0429 4.43279 16.054 4.43279 16.4781C4.43279 16.9329 4.43222 17.3878 4.43337 17.8427C4.43337 17.9396 4.41789 18.0037 4.37261 18.0476C4.37261 17.4248 4.37031 16.8052 4.37375 16.1849C4.3749 16.0386 4.27058 16.08 4.2081 16.0707C3.61999 15.9855 3.06972 15.7862 2.55843 15.4603C0.995883 14.4642 0.196842 12.5793 0.509236 10.6259C0.804434 8.77863 2.21336 7.27022 3.96907 6.92089C6.7405 6.36974 9.2471 8.81134 9.02298 11.8399C8.98458 12.3565 8.86478 12.8478 8.67161 13.3569C8.64524 13.3063 8.66416 13.2187 8.71059 13.0712C9.22245 11.4523 9.01954 9.95129 8.02619 8.60828C7.31255 7.64238 6.36906 7.09432 5.22381 6.94373Z" fill="#FEFEFE" stroke="black" stroke-width="0.2"/>
<path d="M2.30848 3.31643C2.15429 2.54494 2.39389 1.89937 2.96193 1.41179C3.61136 0.855082 4.5153 0.866808 5.16588 1.4229C5.25186 1.49634 5.32466 1.52597 5.43529 1.50313C5.94715 1.39574 6.40113 1.53954 6.7846 1.91294C6.88606 2.01231 6.96974 2.0444 7.1033 2.01725C7.65701 1.9043 8.21416 2.17772 8.48299 2.71097C8.55923 2.86156 8.64234 2.89612 8.78335 2.89119C9.00461 2.88316 9.22758 2.88131 9.44826 2.89736C9.89536 2.92945 10.2261 3.32816 10.2181 3.80833C10.21 4.27739 9.8753 4.65696 9.4282 4.67116C8.96334 4.68597 8.4979 4.67425 8.03246 4.67425V4.67733C7.61746 4.67733 7.20189 4.67795 6.78689 4.67733C6.43266 4.67733 6.28821 4.57426 6.29222 4.32615C6.29623 4.08421 6.44584 3.98361 6.80065 3.98361H9.2058C9.26312 3.98361 9.32044 3.98485 9.37776 3.98114C9.49297 3.97497 9.5715 3.91695 9.57093 3.78426C9.56978 3.6528 9.48896 3.58923 9.37547 3.58738C9.08256 3.58182 8.78851 3.58306 8.49503 3.58244C8.14137 3.58182 8.09666 3.54849 7.98431 3.1967C7.84674 2.76775 7.44321 2.57519 7.04942 2.75047C6.74964 2.88316 6.68085 2.86341 6.4894 2.58691C6.23204 2.21475 5.82392 2.05922 5.42554 2.22215C5.19512 2.3172 5.04207 2.26968 4.87756 2.0802C4.50326 1.65064 3.92548 1.57658 3.46462 1.87529C3.02842 2.15858 2.8106 2.72887 2.94817 3.22694C3.06797 3.65959 3.41991 3.96386 3.85268 3.97744C4.30379 3.99163 4.7549 3.98299 5.20601 3.98299C5.29256 3.98299 5.37969 3.98176 5.45821 4.02373C5.58604 4.09224 5.65081 4.21074 5.63648 4.36257C5.62158 4.52242 5.54076 4.65882 5.38656 4.66252C4.77209 4.67733 4.15017 4.75139 3.54487 4.62796C2.88397 4.49217 2.45121 4.03175 2.30848 3.31643Z" fill="#FEFEFE" stroke="black" stroke-width="0.2"/>
<path d="M11.3532 7.47202C11.5022 6.96099 11.818 6.61043 12.2863 6.43391C12.4124 6.387 12.483 6.32837 12.53 6.1895C12.8567 5.21928 13.6976 4.58358 14.6502 4.57432C15.6063 4.56506 16.4541 5.1804 16.7986 6.1463C16.8507 6.29134 16.9103 6.35985 17.0634 6.38577C17.3592 6.43638 17.6154 6.59685 17.8177 6.83817C17.8922 6.92766 17.9679 6.96161 18.0768 6.95852C18.2912 6.95297 18.5073 6.94926 18.7205 6.96716C19.2267 7.01037 19.5952 7.45968 19.5889 8.01083C19.5826 8.55334 19.1923 9.00327 18.685 9.01685C18.0837 9.03289 17.4818 9.02487 16.8805 9.0224C16.6513 9.02117 16.5246 8.89835 16.5189 8.69097C16.5125 8.47804 16.6484 8.33362 16.8805 8.33115C17.4033 8.32559 17.9261 8.32992 18.4488 8.3293C18.5136 8.3293 18.5778 8.33177 18.642 8.32621C18.826 8.31017 18.9309 8.20216 18.9423 8.00342C18.9532 7.80839 18.8397 7.66767 18.6437 7.65718C18.3789 7.6436 18.1135 7.64669 17.8487 7.65162C17.6704 7.65471 17.538 7.59423 17.4331 7.42635C17.2606 7.15047 17.0072 7.02826 16.6965 7.04184C16.4352 7.05295 16.3383 6.96963 16.2793 6.68943C16.1021 5.84696 15.471 5.28039 14.6967 5.26866C13.9154 5.25632 13.2493 5.81611 13.0699 6.66042C13.0166 6.91223 12.9014 7.02209 12.6675 7.05048C12.2961 7.09554 12.0571 7.33192 11.9585 7.72013C11.8645 8.08921 12.0324 8.32745 12.3884 8.32868C13.384 8.33177 14.3791 8.3293 15.3747 8.32992C15.4389 8.32992 15.5043 8.3256 15.5679 8.33485C15.7536 8.36201 15.8717 8.50828 15.8643 8.69406C15.8574 8.88353 15.7364 9.01438 15.5415 9.02055C15.2767 9.02857 15.0113 9.02364 14.7465 9.02364H13.8655C13.3789 9.02364 12.8916 9.0261 12.405 9.02302C11.5825 9.01808 11.1067 8.31881 11.3532 7.47202Z" fill="#FEFEFE" stroke="black" stroke-width="0.2"/>
<path d="M22.3335 20.5322C22.1776 20.4853 22.0549 20.3538 21.8841 20.3403C21.8497 20.3378 21.8291 20.3211 21.8193 20.2964C22.0394 20.286 22.224 20.3261 22.3335 20.5322Z" fill="#FEFEFE" stroke="black" stroke-width="0.2"/>
<path d="M22.284 18.5218C22.2737 19.1396 22.1877 19.7438 21.8151 20.2894C21.8077 20.2647 21.8105 20.2326 21.822 20.1999C21.8346 20.1635 21.8484 20.1277 21.8673 20.095C22.1315 19.6321 22.2135 19.1105 22.2221 18.5866C22.2508 16.8362 21.9395 15.1531 21.2924 13.546C21.1525 13.1985 20.9576 12.8819 20.7278 12.5937C20.2623 12.0079 19.6473 11.9826 19.1371 12.5208C19.0242 12.6406 18.9302 12.7763 18.8299 12.9072C18.7393 13.0251 18.6511 13.0207 18.5691 12.8979C18.4814 12.7658 18.3805 12.6467 18.275 12.5313C17.7655 11.9728 17.1969 11.9962 16.6563 12.6233C16.4907 12.8146 16.3623 13.0405 16.2499 13.2744C16.1978 13.3843 16.1278 13.459 15.9994 13.4515C14.9763 13.396 13.9525 13.4404 12.9288 13.4269C12.8503 13.4256 12.7712 13.425 12.6926 13.4312C12.6353 13.4355 12.5786 13.4472 12.5281 13.4787C12.4238 13.5429 12.3774 13.6404 12.3963 13.7688C12.4146 13.8904 12.4851 13.9583 12.5963 13.978C12.6818 13.9934 12.7677 13.9891 12.8537 13.9891C13.7915 13.9897 14.7298 13.9866 15.6676 13.991C15.9777 13.9928 16.0797 14.1126 16.0751 14.4421C16.0705 14.752 15.9771 14.8587 15.6853 14.8594C12.7781 14.8618 9.87136 14.8618 6.96408 14.8594C6.68723 14.8587 6.59552 14.752 6.58921 14.4514C6.58233 14.1342 6.67806 14.0113 6.94689 13.9922C7.02542 13.9866 7.10394 13.9891 7.18305 13.9891H11.0711C11.1427 13.9891 11.2138 13.9904 11.2854 13.9866C11.4391 13.9792 11.5508 13.9138 11.568 13.7342C11.5818 13.5855 11.4683 13.4627 11.2975 13.4349C11.2195 13.4219 11.1404 13.4269 11.0613 13.4269C10.3528 13.4262 9.64379 13.4287 8.93532 13.4256C8.78801 13.425 8.70719 13.4127 8.67509 13.3645H8.86195C9.6564 13.3645 10.4514 13.3658 11.2465 13.3633C11.4167 13.3627 11.5617 13.4046 11.6317 13.5892C11.7142 13.8077 11.5812 14.0385 11.3571 14.0545C11.1863 14.0669 11.0137 14.0582 10.8418 14.0582C9.55266 14.0582 8.26353 14.0582 6.9744 14.0589C6.8632 14.0589 6.71703 14.0249 6.68608 14.1835C6.64997 14.3675 6.6173 14.5674 6.71875 14.7427C6.77206 14.834 6.87638 14.7976 6.9595 14.7976C9.00754 14.7989 11.0556 14.7989 13.1036 14.7989C13.9778 14.7989 14.8513 14.7939 15.7249 14.8026C15.9324 14.8044 16.0172 14.7223 16 14.5051C15.996 14.4514 15.9966 14.3971 16 14.3434C16.0126 14.1366 15.9272 14.0545 15.7329 14.0558C14.8806 14.0619 14.0288 14.0582 13.1764 14.0582C13.0045 14.0582 12.8325 14.0613 12.6605 14.0576C12.4399 14.0533 12.3092 13.9243 12.3075 13.7176C12.3063 13.5139 12.4404 13.3639 12.656 13.367C13.7789 13.383 14.9029 13.3182 16.0252 13.4028C16.129 13.4108 16.1462 13.3423 16.1771 13.2787C16.2969 13.0325 16.4339 12.7986 16.603 12.5881C17.1567 11.8999 17.8159 11.8857 18.3862 12.5529C18.4974 12.6825 18.5926 12.8276 18.7072 12.9825C18.8288 12.8115 18.9405 12.6288 19.0844 12.4752C19.5951 11.9302 20.1781 11.9209 20.6911 12.464C21.0986 12.8948 21.3394 13.4386 21.536 14.0021C22.0427 15.458 22.3098 16.964 22.284 18.5218Z" fill="#FEFEFE" stroke="black" stroke-width="0.2"/>
<path d="M21.8188 20.2972H21.8114C21.8131 20.2948 21.8148 20.2923 21.816 20.2898C22.1886 19.7442 22.2745 19.14 22.2849 18.5222C22.3107 16.9644 22.0435 15.4585 21.5368 14.0025C21.3402 13.439 21.0995 12.8953 20.6919 12.4645C20.1789 11.9214 19.596 11.9306 19.0853 12.4756C18.9414 12.6293 18.8296 12.812 18.7081 12.9829C18.5935 12.828 18.4983 12.683 18.3871 12.5534C17.8168 11.8862 17.1576 11.9004 16.6039 12.5885C16.4348 12.799 16.2978 13.0329 16.178 13.2792C16.147 13.3427 16.1298 13.4112 16.0261 13.4032C14.9038 13.3187 13.7797 13.3835 12.6568 13.3674C12.4413 13.3643 12.3072 13.5143 12.3083 13.718C12.31 13.9247 12.4407 14.0537 12.6614 14.0581C12.8334 14.0618 13.0053 14.0587 13.1773 14.0587C14.0296 14.0587 14.8814 14.0624 15.7338 14.0562C15.9281 14.055 16.0135 14.1371 16.0009 14.3438C15.9974 14.3975 15.9969 14.4518 16.0009 14.5055C16.0181 14.7228 15.9332 14.8049 15.7257 14.803C14.8522 14.7944 13.9786 14.7993 13.1045 14.7993C11.0564 14.7993 9.00839 14.7993 6.96035 14.7981C6.87724 14.7981 6.77291 14.8345 6.71961 14.7431C6.61815 14.5679 6.65082 14.3679 6.68693 14.184C6.71789 14.0253 6.86405 14.0593 6.97525 14.0593C8.26438 14.0587 9.55351 14.0587 10.8426 14.0587C11.0146 14.0587 11.1871 14.0673 11.3579 14.055C11.5821 14.0389 11.715 13.8081 11.6325 13.5896C11.5626 13.4051 11.4176 13.3631 11.2473 13.3637C10.4523 13.3662 9.65726 13.365 8.8628 13.365H8.66849C8.66963 13.3625 8.67078 13.3594 8.67135 13.3569C8.86452 12.8478 8.98432 12.3565 9.02272 11.8399C9.24685 8.81134 6.74024 6.36974 3.96882 6.92089C2.2131 7.27022 0.804178 8.77863 0.50898 10.6259C0.196586 12.5793 0.995627 14.4642 2.55817 15.4603C3.06947 15.7862 3.61974 15.9855 4.20784 16.0707C4.27032 16.08 4.37464 16.0386 4.3735 16.1849C4.37006 16.8052 4.37235 17.4248 4.37235 18.0476V18.0574H4.36031C4.23879 18.0562 4.13218 18.0395 4.03244 18.0618C3.87711 18.0951 3.78138 18.0537 3.66559 17.9241C3.15774 17.3508 2.53066 17.1249 1.81129 17.3236C1.07931 17.526 0.617888 18.0451 0.413256 18.8302C0.393194 18.9055 0.414402 19.0017 0.333008 19.0524V19.0986C0.401792 19.2375 0.400072 19.3764 0.333008 19.5152V19.5615C0.45166 19.7763 0.442489 20.0423 0.572606 20.2534C0.600692 20.2997 0.562861 20.3256 0.529616 20.3367C0.433891 20.3682 0.399499 20.4688 0.333008 20.533V20.7644C0.432745 20.9514 0.582923 21.0008 0.780677 21.0008C7.81556 20.9965 14.8505 20.9965 21.8853 21.0008C22.0831 21.0014 22.2327 20.9514 22.333 20.7644V20.533C22.2235 20.3268 22.039 20.2867 21.8188 20.2972ZM14.4784 17.1958C14.4395 16.9724 14.5232 16.8854 14.7295 16.9261C14.7639 16.9329 14.8006 16.9274 14.8367 16.9274H14.8791C15.2213 16.9274 15.2649 16.9983 15.1617 17.365C15.1456 17.4236 15.1216 17.4366 15.0751 17.4366C14.9112 17.4366 14.7467 17.4335 14.5828 17.4378C14.4939 17.4403 14.4721 17.3946 14.4784 17.3113C14.4819 17.273 14.4847 17.2335 14.4784 17.1958ZM11.323 16.2318H6.96322C6.68177 16.2312 6.66572 16.2114 6.66572 15.8714C6.66515 15.522 6.68808 15.4936 6.97239 15.493C9.87851 15.493 12.7852 15.493 15.6913 15.4936C15.8025 15.4936 15.9487 15.4585 15.9791 15.6183C16.014 15.8022 16.0484 16.0028 15.9447 16.1769C15.8908 16.2682 15.7871 16.2306 15.7039 16.2306C14.2434 16.2318 12.7829 16.2318 11.323 16.2318ZM13.8353 17.2212C13.8571 17.3804 13.8204 17.4427 13.6467 17.4421C12.1518 17.4328 10.6563 17.4304 9.16144 17.4433C8.9419 17.4452 8.97114 17.3273 8.96712 17.1804C8.96254 17.0224 8.95566 16.9163 9.1666 16.9212C9.91749 16.9372 10.669 16.9274 11.4198 16.9274C12.1639 16.9274 12.9084 16.9385 13.6519 16.9212C13.9104 16.9156 13.8175 17.0909 13.8353 17.2212ZM5.01548 16.1923C5.01491 16.1102 5.04643 16.0923 5.11522 16.0855C5.38634 16.059 5.6546 16.0139 5.91426 15.9244C6.01228 15.8905 6.014 15.9411 6.02317 16.0238C6.09539 16.6719 6.36307 16.9255 6.96723 16.9255C7.36102 16.9255 7.75481 16.9311 8.14802 16.9224C8.28158 16.9193 8.35208 16.9484 8.32571 17.1076C8.31941 17.1446 8.31998 17.1854 8.32571 17.223C8.34979 17.3859 8.30622 17.4507 8.13541 17.4415C7.79951 17.4242 7.46305 17.4366 7.12658 17.4366C6.81132 17.4366 6.49663 17.4347 6.18194 17.4372C5.69472 17.4409 5.41099 17.7384 5.39953 18.2636C5.39666 18.3747 5.39666 18.4654 5.25909 18.4537C5.13471 18.4432 5.02179 18.3944 5.02007 18.25C5.01261 17.5643 5.01777 16.878 5.01548 16.1923ZM5.01491 12.7434C5.01491 12.6509 5.07051 12.6064 5.1198 12.5534C5.44309 12.204 5.76695 11.8547 6.09195 11.5072C6.23124 11.3579 6.2748 11.1925 6.15672 11.011C6.03807 10.8289 5.82312 10.8221 5.65345 10.9999C5.44997 11.2122 5.25623 11.4356 5.01663 11.701C5.01663 11.3535 5.02007 11.0838 5.01548 10.8141C5.01147 10.5796 4.88594 10.4358 4.69506 10.4358C4.50361 10.4352 4.37522 10.5777 4.3735 10.8123C4.36948 11.406 4.37235 11.9997 4.37235 12.5935V12.8718C4.15625 12.6367 3.97913 12.4398 3.798 12.2478C3.6312 12.0707 3.44262 12.051 3.30562 12.1892C3.1606 12.3349 3.17264 12.549 3.34346 12.7354C3.64496 13.065 3.94761 13.3933 4.25484 13.7161C4.33738 13.8025 4.37751 13.8877 4.37522 14.0149C4.36719 14.416 4.36719 14.8172 4.37464 15.2178C4.37751 15.3572 4.35745 15.3949 4.21185 15.3708C2.42003 15.0758 1.10282 13.452 1.08275 11.5004C1.06326 9.58159 2.37016 7.88432 4.14078 7.59239C5.57607 7.35663 6.78151 7.86581 7.65392 9.11623C8.52633 10.366 8.62148 11.7411 8.03854 13.1736C7.97721 13.3236 7.90097 13.3754 7.75079 13.3687C7.45044 13.3557 7.14893 13.36 6.84858 13.3662C6.38887 13.3767 6.05928 13.7026 6.02775 14.1926C6.00998 14.4673 5.98476 14.7512 6.11029 15.0085C6.16016 15.111 6.10456 15.127 6.0438 15.1517C5.74803 15.2721 5.44137 15.3437 5.12897 15.3893C5.04873 15.4011 5.01491 15.3863 5.01491 15.2875C5.01777 14.4395 5.01777 13.5915 5.01491 12.7434ZM6.19627 19.975C6.16532 20.2732 6.13379 20.3034 5.85293 20.3034H3.72693C3.00412 20.3034 2.28132 20.2997 1.55851 20.3065C1.42954 20.3077 1.34815 20.2602 1.27191 20.154C0.832838 19.543 0.947478 18.6672 1.531 18.2099C2.10477 17.76 2.90324 17.9099 3.30964 18.5438C3.53204 18.8913 3.53147 18.8888 3.92067 18.7802C4.25943 18.6857 4.56208 18.7672 4.80512 19.0388C4.94154 19.1906 5.08255 19.2394 5.26654 19.1653C5.39494 19.1128 5.51015 19.1147 5.60186 19.261C5.66606 19.3634 5.77612 19.4196 5.8856 19.4597C6.15386 19.5566 6.2278 19.6763 6.19627 19.975ZM6.04208 18.5024C6.04208 18.4716 6.04552 18.4401 6.04094 18.4105C6.00941 18.1932 6.0845 18.1241 6.29544 18.1253C7.97663 18.1346 9.6584 18.1303 11.3396 18.1303C13.0139 18.1303 14.6882 18.134 16.3626 18.126C16.5615 18.1247 16.6388 18.1704 16.6291 18.4018C16.6119 18.8092 16.6245 18.8098 16.2525 18.8098H6.33556C6.04208 18.8098 6.04208 18.8092 6.04208 18.5024ZM7.82244 20.1763C7.81671 20.2762 7.79321 20.3102 7.70092 20.3052C7.56565 20.2978 7.43037 20.3034 7.29453 20.3034V20.2997C7.14549 20.2997 6.96379 20.3559 6.85545 20.2843C6.73852 20.2065 6.86061 20.0102 6.8503 19.8633C6.82622 19.5041 6.83253 19.5035 7.18046 19.5035H7.24408C7.86314 19.5035 7.86027 19.5035 7.82244 20.1763ZM14.3094 20.2639C14.2153 20.3879 13.9746 20.3003 13.7986 20.3009C12.9973 20.3059 12.1965 20.3034 11.3952 20.3034C10.4792 20.3034 9.56382 20.2991 8.64785 20.3071C8.49595 20.3083 8.44608 20.2627 8.46213 20.1022C8.48162 19.9121 8.38991 19.6671 8.49653 19.5443C8.60601 19.4196 8.83529 19.506 9.01126 19.5054C10.7211 19.5023 12.431 19.5054 14.1403 19.4998C14.2893 19.4998 14.3644 19.5189 14.3437 19.7072C14.3231 19.896 14.3976 20.1466 14.3094 20.2639ZM15.0138 20.2602C14.921 20.1472 14.9834 19.8819 14.9874 19.6844C14.9886 19.6177 14.9301 19.5035 15.0729 19.5023C15.1674 19.5017 15.254 19.4918 15.2838 19.6282C15.336 19.8664 15.4529 20.0744 15.6048 20.3114C15.3732 20.2861 15.1221 20.3917 15.0138 20.2602ZM19.201 19.1357C19.0841 19.8652 18.7568 20.183 18.0736 20.2102C17.5949 20.2287 17.1152 20.2559 16.6388 20.1658C16.2955 20.1003 16.0565 19.8979 15.9241 19.5035C16.1407 19.5035 16.3333 19.5078 16.5259 19.5023C16.9707 19.4893 17.2602 19.1739 17.2676 18.6993C17.2705 18.5376 17.2711 18.3753 17.2671 18.2136C17.2567 17.7772 16.9719 17.4588 16.566 17.439C16.366 17.4298 16.1654 17.4291 15.9653 17.439C15.8369 17.4458 15.7899 17.4199 15.8117 17.2644C15.8398 17.0632 15.8541 16.9175 16.1023 16.8632C16.401 16.7984 16.5855 16.5367 16.6239 16.2022C16.6623 15.8664 16.691 15.5239 16.5173 15.2122C16.4921 15.1671 16.4904 15.1338 16.5162 15.0875C16.6944 14.7598 16.6537 14.4055 16.6193 14.0525C16.6136 13.992 16.5918 13.9346 16.6199 13.8729C16.7741 13.5334 16.9323 13.1958 17.1925 12.9335C17.4287 12.6953 17.6035 12.7002 17.8449 12.944C18.0627 13.1631 18.2117 13.4353 18.3384 13.7205C18.8187 14.8012 19.06 15.9522 19.1942 17.1329C19.2704 17.7988 19.3082 18.4679 19.201 19.1357ZM21.6056 18.9746C21.5924 19.0814 21.5775 19.1881 21.554 19.2924C21.4285 19.8516 21.1591 20.1256 20.6277 20.1954C20.2603 20.2435 19.8889 20.2312 19.5025 20.212C20.0047 19.2782 19.941 18.2772 19.8568 17.2804C19.757 16.0954 19.5094 14.945 19.0956 13.8383C19.0767 13.7871 19.0572 13.7414 19.0853 13.6859C19.2354 13.3878 19.3862 13.0891 19.6401 12.8749C19.8321 12.7132 19.9657 12.7169 20.1612 12.8848C20.4076 13.0959 20.5635 13.3822 20.7005 13.6797C21.1327 14.6185 21.3637 15.6239 21.5145 16.6521C21.6274 17.4211 21.6996 18.1951 21.6056 18.9746Z" fill="black" stroke="black" stroke-width="0.2"/>
<path d="M19.5889 8.01083C19.5826 8.55334 19.1923 9.00327 18.685 9.01685C18.0837 9.03289 17.4818 9.02487 16.8805 9.0224C16.6513 9.02117 16.5246 8.89835 16.5189 8.69097C16.5125 8.47804 16.6484 8.33362 16.8805 8.33115C17.4033 8.32559 17.9261 8.32992 18.4488 8.3293C18.5136 8.3293 18.5778 8.33177 18.642 8.32621C18.826 8.31017 18.9309 8.20216 18.9423 8.00342C18.9532 7.80839 18.8397 7.66767 18.6437 7.65718C18.3789 7.6436 18.1135 7.64669 17.8487 7.65162C17.6704 7.65471 17.538 7.59423 17.4331 7.42635C17.2606 7.15047 17.0072 7.02826 16.6965 7.04184C16.4352 7.05295 16.3383 6.96963 16.2793 6.68943C16.1021 5.84696 15.471 5.28039 14.6967 5.26866C13.9154 5.25632 13.2493 5.81611 13.0699 6.66042C13.0166 6.91223 12.9014 7.02209 12.6675 7.05048C12.2961 7.09554 12.0571 7.33192 11.9585 7.72013C11.8645 8.08921 12.0324 8.32745 12.3884 8.32868C13.384 8.33177 14.3791 8.3293 15.3747 8.32992C15.4389 8.32992 15.5043 8.3256 15.5679 8.33485C15.7536 8.36201 15.8717 8.50828 15.8643 8.69406C15.8574 8.88353 15.7364 9.01438 15.5415 9.02055C15.2767 9.02857 15.0113 9.02364 14.7465 9.02364H13.8655C13.3789 9.02364 12.8916 9.0261 12.405 9.02302C11.5825 9.01808 11.1067 8.31881 11.3532 7.47202C11.5022 6.96099 11.818 6.61043 12.2863 6.43391C12.4124 6.387 12.483 6.32837 12.53 6.1895C12.8567 5.21928 13.6976 4.58358 14.6502 4.57432C15.6063 4.56506 16.4541 5.1804 16.7986 6.1463C16.8507 6.29134 16.9103 6.35985 17.0634 6.38577C17.3592 6.43638 17.6154 6.59685 17.8177 6.83817C17.8922 6.92766 17.9679 6.96161 18.0768 6.95852C18.2912 6.95297 18.5073 6.94926 18.7205 6.96716C19.2267 7.01037 19.5952 7.45968 19.5889 8.01083Z" fill="black" stroke="black" stroke-width="0.2"/>
<path d="M10.2181 3.80833C10.21 4.27739 9.8753 4.65696 9.4282 4.67116C8.96334 4.68597 8.4979 4.67425 8.03246 4.67425V4.67733C7.61746 4.67733 7.20189 4.67795 6.78689 4.67733C6.43266 4.67733 6.28821 4.57426 6.29222 4.32615C6.29623 4.08421 6.44584 3.98361 6.80065 3.98361H9.2058C9.26312 3.98361 9.32044 3.98485 9.37776 3.98114C9.49297 3.97497 9.5715 3.91695 9.57093 3.78426C9.56978 3.6528 9.48896 3.58923 9.37547 3.58738C9.08256 3.58182 8.78851 3.58306 8.49503 3.58244C8.14137 3.58182 8.09666 3.54849 7.98431 3.1967C7.84674 2.76775 7.44321 2.57519 7.04942 2.75047C6.74964 2.88316 6.68085 2.86341 6.4894 2.58691C6.23204 2.21475 5.82392 2.05922 5.42554 2.22215C5.19512 2.3172 5.04207 2.26968 4.87756 2.0802C4.50326 1.65064 3.92548 1.57658 3.46462 1.87529C3.02842 2.15858 2.8106 2.72887 2.94817 3.22694C3.06797 3.65959 3.41991 3.96386 3.85268 3.97744C4.30379 3.99163 4.7549 3.98299 5.20601 3.98299C5.29256 3.98299 5.37969 3.98176 5.45821 4.02373C5.58604 4.09224 5.65081 4.21074 5.63648 4.36257C5.62158 4.52242 5.54076 4.65882 5.38656 4.66252C4.77209 4.67733 4.15017 4.75139 3.54487 4.62796C2.88397 4.49217 2.45121 4.03175 2.30848 3.31643C2.15429 2.54494 2.39389 1.89937 2.96193 1.41179C3.61136 0.855082 4.5153 0.866808 5.16588 1.4229C5.25186 1.49634 5.32466 1.52597 5.43529 1.50313C5.94715 1.39574 6.40113 1.53954 6.7846 1.91294C6.88606 2.01231 6.96974 2.0444 7.1033 2.01725C7.65701 1.9043 8.21416 2.17772 8.48299 2.71097C8.55923 2.86156 8.64234 2.89612 8.78335 2.89119C9.00461 2.88316 9.22758 2.88131 9.44826 2.89736C9.89536 2.92945 10.2261 3.32816 10.2181 3.80833Z" fill="black" stroke="black" stroke-width="0.2"/>
</svg>
