<svg width="22" height="20" viewBox="0 0 22 20" fill="none" xmlns="http://www.w3.org/2000/svg">
<path d="M6.10669 3.02608C6.1079 3.37534 5.8485 3.63382 5.46546 3.63743C4.67271 3.64464 3.87996 3.64464 3.08782 3.63682C2.70902 3.63322 2.44053 3.36391 2.44538 3.02248C2.45023 2.67984 2.72296 2.43097 3.10297 2.42796C3.49571 2.42496 3.88845 2.42736 4.28058 2.42736C4.67332 2.42736 5.06606 2.42496 5.45819 2.42796C5.84426 2.43157 6.10487 2.67443 6.10669 3.02608Z" fill="black"/>
<path d="M17.7165 3.03149C17.7159 3.36331 17.4456 3.63442 17.114 3.63742C16.7789 3.63983 16.4892 3.34768 16.4983 3.01646C16.5073 2.68825 16.7849 2.42496 17.1183 2.42856C17.4559 2.43157 17.7177 2.69606 17.7165 3.03149Z" fill="black"/>
<path d="M19.5549 3.03329C19.5519 3.3591 19.2731 3.63562 18.9458 3.63742C18.6161 3.63863 18.3416 3.36812 18.3379 3.0375C18.3343 2.70027 18.5931 2.43457 18.9301 2.42856C19.2731 2.42255 19.558 2.69847 19.5549 3.03329Z" fill="black"/>
<path d="M21.9977 2.00202C21.9977 1.82349 21.9898 1.64014 21.9504 1.46642C21.7462 0.56353 21.0007 0.000878089 20.017 0.000878089C14.0175 0.000276965 8.01789 0.000276965 2.01833 0.000878089C0.784358 0.000878089 0.00130592 0.780536 0.000699838 2.01224C-0.000512317 4.71008 9.37605e-05 7.40793 0.000699838 10.1064C0.000699838 10.2933 0.00494238 10.4815 0.0485799 10.6648C0.262525 11.5575 0.998909 12.1153 1.97166 12.1159C4.97902 12.1177 7.98638 12.1165 10.9937 12.1165C13.9859 12.1165 16.9781 12.1171 19.9703 12.1165C20.1516 12.1165 20.3334 12.1183 20.5116 12.0775C21.4389 11.8659 21.9989 11.1319 21.9995 10.1184C22.0007 7.41334 22.0007 4.70768 21.9977 2.00202ZM17.1194 10.6907C17.1248 10.8734 17.0654 10.9107 16.8915 10.9107C13.7326 10.9059 10.5743 10.9071 7.41545 10.9071C6.64452 10.9071 5.87359 10.9005 5.10327 10.9119C4.91781 10.9143 4.8778 10.856 4.88205 10.6847C4.89356 10.2206 4.89538 9.75532 4.88084 9.29065C4.87538 9.11392 4.93478 9.08567 5.0972 9.08627C7.06999 9.09168 9.04216 9.08987 11.0143 9.08987C12.9714 9.08987 14.929 9.09288 16.886 9.08507C17.0757 9.08446 17.1254 9.13255 17.1194 9.3189C17.1042 9.77576 17.1048 10.2338 17.1194 10.6907ZM20.7789 10.0992C20.7789 10.6726 20.5455 10.9065 19.9722 10.9071C19.4885 10.9071 19.0049 10.9011 18.5212 10.9101C18.3739 10.9131 18.3309 10.8734 18.3327 10.7249C18.3406 10.0354 18.337 9.34595 18.3364 8.65646C18.3358 8.09441 18.12 7.87741 17.5618 7.87741C13.1865 7.87681 8.81125 7.87681 4.43597 7.87741C3.88687 7.87741 3.66444 8.09561 3.66444 8.63663C3.66323 9.32612 3.65716 10.0156 3.66868 10.7051C3.67171 10.8794 3.61838 10.9143 3.45413 10.9107C2.95533 10.8999 2.45653 10.9107 1.95833 10.9059C1.48135 10.9011 1.22376 10.6558 1.22316 10.1863C1.21952 7.43558 1.21952 4.68484 1.22316 1.93469C1.22376 1.4568 1.4862 1.21395 1.97954 1.21395C4.99417 1.21274 8.00941 1.21335 11.0246 1.21335H19.9558C20.5498 1.21335 20.7789 1.43937 20.7789 2.02727C20.7795 4.7179 20.7795 7.40853 20.7789 10.0992Z" fill="black"/>
<path d="M13.6321 13.8944C13.6346 14.0266 13.5855 14.142 13.5134 14.2502C13.3461 14.4991 13.1788 14.748 13.0152 14.9993C12.743 15.4176 12.7806 15.8637 13.1146 16.2352C13.9006 17.1098 13.9716 18.1107 13.3164 19.0887C13.183 19.2883 13.0503 19.4878 12.9133 19.685C12.6945 20 12.3394 20.0872 12.0509 19.9002C11.7503 19.7055 11.6897 19.3478 11.9048 19.0142C12.0509 18.7875 12.206 18.5663 12.3527 18.3397C12.6339 17.9051 12.5952 17.4729 12.2454 17.087C11.4824 16.2448 11.4048 15.2072 12.0357 14.2659C12.1945 14.029 12.3503 13.791 12.5145 13.5578C12.6806 13.3215 12.9461 13.2337 13.2103 13.3161C13.4582 13.3942 13.634 13.6353 13.6321 13.8944Z" fill="black"/>
<path d="M8.40684 19.3712C8.39896 19.2528 8.45351 19.132 8.53048 19.0172C8.68079 18.7923 8.83231 18.5687 8.97898 18.3421C9.2602 17.9075 9.22383 17.4675 8.87958 17.087C8.10805 16.2328 8.03168 15.2205 8.66745 14.2683C8.80928 14.0561 8.94867 13.8427 9.09535 13.6335C9.30808 13.3305 9.659 13.2476 9.94446 13.4267C10.2384 13.6113 10.3117 13.9719 10.1105 14.2923C9.96325 14.5274 9.80082 14.7534 9.65051 14.9866C9.38384 15.3996 9.42141 15.839 9.75051 16.2051C10.5408 17.0845 10.6142 18.1053 9.95476 19.0833C9.79961 19.3135 9.64809 19.5468 9.4802 19.768C9.32202 19.9766 9.04868 20.0475 8.80928 19.9657C8.57351 19.8846 8.40805 19.6501 8.40684 19.3712Z" fill="black"/>
<path d="M17.2639 17.7789C17.2651 18.1774 17.1663 18.5507 16.9548 18.8885C16.776 19.1741 16.5881 19.4548 16.3905 19.7283C16.1833 20.0156 15.8293 20.0794 15.5529 19.896C15.265 19.7049 15.1935 19.3592 15.3875 19.0478C15.5384 18.8062 15.7026 18.5729 15.8572 18.3337C16.1336 17.9057 16.0984 17.4807 15.7584 17.0996C14.9699 16.2159 14.902 15.2024 15.5669 14.2232C15.6935 14.0369 15.816 13.8481 15.9463 13.6648C16.1572 13.3678 16.5136 13.2933 16.799 13.4814C17.0875 13.6714 17.156 14.02 16.9602 14.3296C16.8281 14.5388 16.6863 14.742 16.5499 14.9482C16.2372 15.4206 16.2657 15.8354 16.6499 16.2532C17.0475 16.6878 17.2596 17.191 17.2639 17.7789Z" fill="black"/>
<path d="M5.49984 19.9976C5.03135 20.003 4.7374 19.4963 4.97922 19.0821C5.12286 18.8368 5.29257 18.6066 5.44893 18.3686C5.75197 17.9075 5.71924 17.4873 5.35136 17.0798C4.59376 16.2406 4.52103 15.1946 5.15559 14.2563C5.29014 14.0573 5.42166 13.8565 5.56106 13.6618C5.77197 13.3672 6.13138 13.2957 6.41502 13.4862C6.69988 13.6774 6.76533 14.026 6.56775 14.3356C6.4229 14.5635 6.26653 14.7835 6.12107 15.0113C5.86288 15.4146 5.90046 15.8529 6.21744 16.2105C7.03443 17.1327 7.09868 18.1227 6.40714 19.141C6.27623 19.3334 6.14592 19.5257 6.0138 19.7169C5.89076 19.8954 5.71985 19.991 5.49984 19.9976Z" fill="black"/>
<path d="M6.10669 3.02608C6.1079 3.37534 5.8485 3.63382 5.46546 3.63743C4.67271 3.64464 3.87996 3.64464 3.08782 3.63682C2.70902 3.63322 2.44053 3.36391 2.44538 3.02248C2.45023 2.67984 2.72296 2.43097 3.10297 2.42796C3.49571 2.42496 3.88845 2.42736 4.28058 2.42736C4.67332 2.42736 5.06606 2.42496 5.45819 2.42796C5.84426 2.43157 6.10487 2.67443 6.10669 3.02608Z" fill="#FEFEFE"/>
<path d="M17.7165 3.03149C17.7159 3.36331 17.4456 3.63442 17.114 3.63742C16.7789 3.63983 16.4892 3.34768 16.4983 3.01646C16.5073 2.68825 16.7849 2.42496 17.1183 2.42856C17.4559 2.43157 17.7177 2.69606 17.7165 3.03149Z" fill="#FEFEFE"/>
<path d="M19.5549 3.03329C19.5519 3.3591 19.2731 3.63562 18.9458 3.63742C18.6161 3.63863 18.3416 3.36812 18.3379 3.0375C18.3343 2.70027 18.5931 2.43457 18.9301 2.42856C19.2731 2.42255 19.558 2.69847 19.5549 3.03329Z" fill="#FEFEFE"/>
<path d="M6.10669 3.02608C6.1079 3.37534 5.8485 3.63382 5.46546 3.63743C4.67271 3.64464 3.87996 3.64464 3.08782 3.63682C2.70902 3.63322 2.44053 3.36391 2.44538 3.02248C2.45023 2.67984 2.72296 2.43097 3.10297 2.42796C3.49571 2.42496 3.88845 2.42736 4.28058 2.42736C4.67332 2.42736 5.06606 2.42496 5.45819 2.42796C5.84426 2.43157 6.10487 2.67443 6.10669 3.02608Z" fill="black"/>
<path d="M17.7165 3.03149C17.7159 3.36331 17.4456 3.63442 17.114 3.63742C16.7789 3.63983 16.4892 3.34768 16.4983 3.01646C16.5073 2.68825 16.7849 2.42496 17.1183 2.42856C17.4559 2.43157 17.7177 2.69606 17.7165 3.03149Z" fill="#010101"/>
<path d="M19.5549 3.03329C19.5519 3.3591 19.2731 3.63562 18.9458 3.63742C18.6161 3.63863 18.3416 3.36812 18.3379 3.0375C18.3343 2.70027 18.5931 2.43457 18.9301 2.42856C19.2731 2.42255 19.558 2.69847 19.5549 3.03329Z" fill="black"/>
</svg>
