<svg width="23" height="22" viewBox="0 0 23 22" fill="none" xmlns="http://www.w3.org/2000/svg">
<path d="M8.94188 7.23914C8.70059 7.24143 8.50459 7.04198 8.51089 6.80012C8.51719 6.56571 8.70805 6.38346 8.9436 6.38632C9.17915 6.38919 9.3637 6.57718 9.36313 6.81273C9.36255 7.04714 9.17514 7.23684 8.94188 7.23914Z" fill="#FEFEFE"/>
<path d="M17.1167 17.2981C16.4444 16.6241 15.7704 15.9512 15.097 15.2772C11.8559 12.0368 8.61549 8.79576 5.37447 5.55588C5.04435 5.22519 4.81338 5.24468 4.53197 5.62007C3.34388 7.20591 2.75528 8.99292 2.72949 10.7702C2.73007 11.4654 2.77018 11.9566 2.85214 12.4449C3.55193 16.6275 7.04513 19.7465 11.2599 19.927C13.4017 20.0193 15.3388 19.4129 17.0582 18.1274C17.4204 17.8569 17.4376 17.6196 17.1167 17.2981ZM8.83615 10.6607C9.0184 10.6791 9.2081 10.5931 9.37603 10.7685C9.83109 11.2424 10.3039 11.6992 10.8094 12.203C10.1303 12.203 9.51014 12.2013 8.88945 12.2047C8.79717 12.2053 8.78628 12.1652 8.78686 12.0895C8.78915 11.6459 8.788 11.2023 8.78858 10.7587C8.78858 10.7192 8.77597 10.655 8.83615 10.6607ZM16.0764 17.7749C11.4393 20.828 5.05925 18.2753 3.80869 12.8518C3.29459 10.6246 3.66885 8.53728 4.88788 6.60184C4.97614 6.46142 5.02429 6.41385 5.17043 6.56172C6.18544 7.59163 7.21134 8.61179 8.23608 9.6331C8.27907 9.67551 8.34269 9.69786 8.39656 9.72996C8.38051 9.75231 8.36504 9.77466 8.34899 9.79701H7.52082C6.81187 9.79701 6.10291 9.79587 5.39395 9.79759C5.03862 9.79816 4.87986 9.95405 4.87871 10.3048C4.87757 11.0499 4.87757 11.7944 4.87871 12.5394C4.87929 12.9062 5.03403 13.0621 5.40083 13.0621C7.41995 13.0627 9.43965 13.0644 11.4593 13.0592C11.6078 13.0587 11.7092 13.1034 11.813 13.2077C13.2378 14.6388 14.6648 16.0676 16.0971 17.4912C16.2232 17.6162 16.2426 17.6655 16.0764 17.7749ZM5.73554 10.8109C5.73382 10.6957 5.75674 10.6515 5.88455 10.6533C6.51441 10.6601 7.14428 10.659 7.77414 10.6538C7.88934 10.6527 7.93462 10.675 7.93175 10.8028C7.92316 11.2178 7.92144 11.6333 7.9329 12.0483C7.93691 12.1933 7.88075 12.2082 7.76039 12.2059C7.44574 12.1984 7.13052 12.203 6.81588 12.203C6.50811 12.203 6.19977 12.1984 5.89257 12.2059C5.7768 12.2087 5.7321 12.1841 5.73496 12.0563C5.74299 11.6413 5.74184 11.2264 5.73554 10.8109Z" fill="#FEFEFE"/>
<path d="M17.5964 8.78031C17.5918 8.28398 17.2938 7.9808 16.7928 7.97908C15.6197 7.97564 14.4465 7.9808 13.2733 7.97679C12.4772 7.97392 11.8685 7.53606 11.653 6.82309C11.6072 6.67178 11.5763 6.51761 11.5843 6.35886C11.5969 6.12044 11.7866 5.93646 12.0135 5.93646C12.2348 5.93646 12.413 6.10381 12.44 6.33708C12.5036 6.88212 12.7666 7.11767 13.3157 7.11825C14.4745 7.11939 15.6334 7.11366 16.7923 7.11997C17.7631 7.1257 18.448 7.80657 18.4549 8.75853C18.4549 8.81585 18.4583 8.87316 18.4543 8.93047C18.4377 9.17233 18.2537 9.35344 18.0262 9.35344C17.7987 9.35344 17.6141 9.17233 17.5975 8.93047C17.5941 8.88061 17.5969 8.83017 17.5964 8.78031Z" fill="#FEFEFE"/>
<path d="M18.711 3.52876C18.7075 3.28576 18.899 3.09204 19.1408 3.09376C19.3764 3.09605 19.5747 3.29779 19.573 3.53278C19.5707 3.76604 19.3856 3.9523 19.1517 3.95574C18.9122 3.95918 18.715 3.76776 18.711 3.52876Z" fill="#FEFEFE"/>
<path d="M20.2321 8.48109C19.1954 4.88931 16.1062 2.40539 12.3855 2.09991C10.1084 1.91307 8.05895 2.53319 6.23584 3.9064C5.92807 4.13795 5.91202 4.39069 6.18025 4.66236C6.38657 4.87155 6.59519 5.07787 6.80323 5.28534C7.07661 5.55815 7.34828 5.83382 7.6251 6.10377C7.76666 6.24189 7.93516 6.278 8.11741 6.18974C8.2905 6.10663 8.36787 5.96278 8.3587 5.77193C8.35239 5.63266 8.27044 5.53465 8.17759 5.44238C7.81824 5.0836 7.45889 4.72425 7.10241 4.36777C7.12934 4.30014 7.18608 4.27951 7.23365 4.25028C9.87863 2.60713 12.6319 2.42602 15.3904 3.85081C17.9929 5.19536 19.4263 7.41737 19.7083 10.3409C19.8854 12.1846 19.4212 13.8839 18.4193 15.44C18.3362 15.5689 18.2921 15.5638 18.1918 15.4612C17.7969 15.056 17.3946 14.6582 16.994 14.2588C16.6054 13.8725 16.2157 13.4879 15.7858 13.0627H15.9423C16.6014 13.0627 17.2599 13.0632 17.919 13.0621C18.3041 13.0615 18.4555 12.9131 18.456 12.5331C18.4572 11.8098 18.4566 11.0865 18.456 10.3632C18.456 9.93683 18.3173 9.79699 17.8915 9.79699C16.1733 9.79699 14.4545 9.7947 12.7357 9.80043C12.5872 9.801 12.4858 9.7563 12.382 9.65141C11.7029 8.96366 11.018 8.28164 10.3331 7.59963C10.0987 7.36579 9.84195 7.3463 9.65511 7.54059C9.47171 7.73144 9.49349 7.97445 9.72159 8.20255C12.4858 10.9679 15.25 13.7321 18.0153 16.4963C18.2738 16.7542 18.5368 16.7358 18.7569 16.4384C20.5405 14.0261 21.0626 11.3593 20.2321 8.48109ZM16.696 11.4728C16.6885 11.2436 16.6994 11.0143 16.6919 10.7856C16.6885 10.6819 16.7206 10.6395 16.8238 10.6561C16.8306 10.6572 16.8381 10.6561 16.845 10.6561C17.0874 10.6595 17.3298 10.6624 17.5723 10.6658C17.6342 10.9186 17.5705 11.1759 17.5969 11.3685C17.5969 11.6447 17.5918 11.8597 17.5992 12.074C17.6026 12.1778 17.5705 12.2202 17.468 12.2035C17.4605 12.2024 17.4536 12.203 17.4462 12.203C17.2037 12.2001 16.8857 12.2884 16.7401 12.168C16.5888 12.0436 16.704 11.7129 16.696 11.4728ZM15.0201 12.2047C14.9456 12.2064 14.9026 12.1674 14.8568 12.1216C14.3817 11.6465 13.9054 11.1719 13.389 10.6561C14.2034 10.6561 14.9657 10.6573 15.7274 10.655C15.8116 10.6544 15.8368 10.6813 15.8363 10.7644C15.8328 11.2075 15.8334 11.6511 15.8363 12.0941C15.8368 12.1766 15.8133 12.2064 15.7279 12.2047C15.4924 12.2001 15.2563 12.2001 15.0201 12.2047Z" fill="#FEFEFE"/>
<path d="M22.6338 10.0796C22.5129 10.0028 22.5472 9.85891 22.5346 9.74887C22.4745 9.2428 22.3799 8.74533 22.2544 8.25129C21.9495 7.05231 21.4411 5.94561 20.7608 4.91513C20.5619 4.61366 20.3602 4.54087 20.147 4.68473C19.951 4.81597 19.9475 5.03491 20.1435 5.3272C21.0663 6.70328 21.6234 8.21805 21.8073 9.8612C22.0068 11.639 21.7529 13.3601 21.0451 15.0067C20.1625 17.0597 18.7468 18.6529 16.8309 19.7929C15.6032 20.5236 14.269 20.9552 12.8471 21.1208C10.8664 21.3512 8.98308 21.0234 7.1932 20.1545C5.29444 19.2335 3.83755 17.8391 2.78644 16.0137C2.15314 14.9139 1.75367 13.7304 1.57485 12.4787C1.30434 10.5868 1.529 8.74991 2.29011 6.99271C3.32747 4.59933 5.04513 2.8513 7.39609 1.73542C8.45752 1.23165 9.58314 0.93878 10.7603 0.837337C12.3817 0.697494 13.9446 0.923879 15.4537 1.52394C16.1007 1.78127 16.7151 2.10452 17.294 2.4931C17.3828 2.55327 17.4699 2.61689 17.5656 2.66618C17.749 2.76017 17.9267 2.72349 18.0453 2.57104C18.1628 2.41916 18.1433 2.24952 17.9897 2.08962C17.9353 2.0323 17.8717 1.98588 17.8058 1.94175C16.3214 0.949096 14.6983 0.331267 12.9187 0.136977C12.819 0.126088 12.721 0.106601 12.6213 0.0951389C12.5634 0.0882614 12.4832 0.0980045 12.4832 0C12.7451 0.0945657 13.023 0.0808107 13.2924 0.121503C14.9883 0.379982 16.5397 0.995519 17.9508 1.96983C18.1176 2.08503 18.2196 2.23003 18.1789 2.43922C18.1422 2.62549 18.0195 2.74069 17.8361 2.78195C17.6654 2.82035 17.5341 2.7275 17.4029 2.63752C16.4406 1.97671 15.4027 1.46835 14.2667 1.19554C10.4927 0.290002 7.19664 1.19096 4.43188 3.91101C2.85865 5.45902 1.92847 7.36696 1.63446 9.55286C1.23098 12.552 1.99094 15.2417 3.94645 17.564C5.36321 19.2467 7.15939 20.3397 9.29772 20.852C14.8353 22.1782 20.3911 18.7062 21.5764 13.1567C22.1713 10.3736 21.6681 7.77445 20.1109 5.38566C20.0759 5.33179 20.0381 5.27906 20.0054 5.22347C19.8725 4.99536 19.9195 4.75408 20.1206 4.61997C20.3218 4.48643 20.5711 4.53572 20.7218 4.75293C20.9987 5.1524 21.2468 5.57021 21.4675 6.00349C22.1036 7.25348 22.4785 8.57855 22.6212 9.97181C22.6246 10.0062 22.6068 10.0515 22.6338 10.0796Z" fill="#FEFEFE"/>
<path d="M22.667 10.2269C22.6412 10.2504 22.6446 10.2807 22.6446 10.3105V10.483C22.6452 10.4876 22.6446 10.4922 22.6446 10.4974C22.6446 10.5232 22.6441 10.5495 22.667 10.5702V11.2579C22.6315 11.3439 22.6315 11.4298 22.667 11.5158V11.6878C22.6395 11.7164 22.6395 11.7451 22.667 11.7737V11.9451C22.5965 11.9657 22.624 12.027 22.6171 12.0706C22.5558 12.4592 22.5157 12.8518 22.4343 13.2358C21.4772 17.7795 17.8556 21.1919 13.2706 21.8837C13.0224 21.9209 12.7657 21.9077 12.5261 22H12.4401C12.4201 21.9782 12.3949 21.9771 12.3696 21.9776C12.3651 21.9782 12.3599 21.9782 12.3553 21.9782C12.3507 21.9782 12.3456 21.9782 12.341 21.9776H12.1541C12.1501 21.9782 12.1456 21.9782 12.1415 21.9782H12.1243C12.0991 21.9776 12.0739 21.9782 12.0539 22H11.2801C11.2601 21.9782 11.2349 21.9776 11.2096 21.9782H11.1924C11.1884 21.9782 11.1838 21.9782 11.1798 21.9776H10.993C10.9884 21.9782 10.9833 21.9782 10.9787 21.9782C10.9483 21.9776 10.9173 21.9736 10.8938 22H10.7219C10.7007 21.9295 10.64 21.9576 10.5964 21.9524C10.1345 21.9003 9.67538 21.8321 9.22204 21.7301C4.82158 20.7368 1.43211 17.074 0.785056 12.6237C0.752388 12.3973 0.772447 12.16 0.666992 11.9451V11.7737C0.689344 11.7531 0.689917 11.7273 0.689344 11.7015C0.688771 11.6969 0.688771 11.6929 0.688771 11.6889C0.688771 11.6826 0.688771 11.6769 0.689344 11.6711V11.5611C0.683613 11.517 0.704818 11.4682 0.666992 11.4298V10.6131C0.689344 10.5925 0.689344 10.5673 0.689344 10.5415C0.688771 10.5363 0.688771 10.5312 0.688771 10.526C0.688771 10.5226 0.688771 10.5186 0.689344 10.5151V10.3529C0.684186 10.3105 0.703672 10.2635 0.666992 10.2269V10.0549C0.736914 10.0331 0.709403 9.97239 0.713988 9.92883C0.788495 9.25254 0.910571 8.586 1.09798 7.93091C2.26945 3.83249 5.84232 0.721565 10.0617 0.11921C10.2892 0.086542 10.5253 0.0980045 10.7466 0.0223519H10.7494C10.7718 0.0217788 10.7907 0.0143281 10.8079 0H11.1942C11.275 0.0464232 11.3632 0.0108894 11.4475 0.0223519C11.4486 0.0223519 11.4504 0.0217788 11.4515 0.0217788C11.4567 0.0212056 11.4624 0.0206325 11.4681 0.0206325C11.5346 0.0177669 11.6039 0.041265 11.667 0H12.1828C12.2063 0.0269369 12.2384 0.0212056 12.2688 0.0223519C12.2693 0.0223519 12.2693 0.0223519 12.2699 0.0223519H12.2825C12.3083 0.0217788 12.3341 0.0223519 12.3547 0H12.4831C12.745 0.0945657 13.023 0.0808107 13.2924 0.121503C14.9883 0.379982 16.5397 0.995519 17.9507 1.96983C18.1175 2.08503 18.2195 2.23003 18.1788 2.43922C18.1422 2.62549 18.0195 2.74069 17.8361 2.78195C17.6653 2.82035 17.5341 2.7275 17.4028 2.63752C16.4406 1.97671 15.4026 1.46835 14.2667 1.19554C10.4927 0.290002 7.19661 1.19096 4.43185 3.91101C2.85862 5.45902 1.92844 7.36696 1.63443 9.55286C1.23095 12.552 1.99091 15.2417 3.94642 17.564C5.36318 19.2467 7.15936 20.3397 9.29769 20.852C14.8352 22.1782 20.3911 18.7062 21.5763 13.1567C22.1712 10.3736 21.668 7.77445 20.1109 5.38566C20.0759 5.33179 20.0381 5.27906 20.0054 5.22347C19.8724 4.99536 19.9194 4.75408 20.1206 4.61997C20.3218 4.48643 20.5711 4.53572 20.7218 4.75293C20.9986 5.1524 21.2468 5.57021 21.4674 6.00349C22.1036 7.25348 22.4784 8.57854 22.6211 9.97181C22.6246 10.0062 22.6068 10.0515 22.6338 10.0796C22.6343 10.0801 22.6355 10.0813 22.636 10.0813L22.6366 10.0819C22.6441 10.0882 22.6538 10.0939 22.667 10.0979V10.2269Z" fill="black"/>
<path d="M11.4511 0.0418382C11.3657 0.02751 11.2694 0.0813838 11.1943 0C11.2803 0 11.3663 0 11.4522 0C11.4666 0.00974314 11.4712 0.0189131 11.466 0.0280832C11.4608 0.0372532 11.4563 0.0418382 11.4511 0.0418382Z" fill="#242424"/>
<path d="M22.6669 11.5158C22.5964 11.4299 22.605 11.3439 22.6669 11.2579C22.6669 11.3439 22.6669 11.4299 22.6669 11.5158Z" fill="#2E2E2E"/>
<path d="M11.4512 0.0418382C11.4523 0.0280832 11.4523 0.0143281 11.4523 0C11.524 0 11.5956 0 11.6672 0C11.6065 0.0716407 11.524 0.0338144 11.4512 0.0418382Z" fill="#111111"/>
<path d="M0.666992 10.2269C0.739206 10.2521 0.700233 10.3083 0.701953 10.353C0.69221 10.3747 0.680174 10.3759 0.666992 10.3558C0.666992 10.3128 0.666992 10.2699 0.666992 10.2269Z" fill="#878787"/>
<path d="M0.666992 11.4299C0.720866 11.4631 0.709977 11.513 0.702526 11.5623C0.688771 11.5777 0.677308 11.5754 0.666992 11.5588C0.666992 11.5158 0.666992 11.4729 0.666992 11.4299Z" fill="#424242"/>
<path d="M0.666992 11.5588C0.679028 11.5605 0.69049 11.5616 0.702526 11.5622C0.703099 11.6046 0.703672 11.647 0.704245 11.6895C0.691063 11.7066 0.678455 11.7061 0.666992 11.6872C0.666992 11.6447 0.666992 11.6018 0.666992 11.5588Z" fill="#696969"/>
<path d="M11.0632 21.9616C11.1062 21.9622 11.1486 21.9628 11.1916 21.9633C11.2077 21.9702 11.2134 21.9777 11.2088 21.9863C11.2042 21.9948 11.1996 21.9994 11.1945 21.9994C11.1515 21.9994 11.1085 21.9994 11.0655 21.9994C11.0518 21.992 11.0472 21.9834 11.0512 21.9748C11.0546 21.9662 11.0587 21.9616 11.0632 21.9616Z" fill="#4F4F4F"/>
<path d="M12.143 21.9639C12.186 21.9639 12.229 21.9633 12.2714 21.9633C12.2835 21.9725 12.2875 21.9811 12.2823 21.9885C12.2777 21.996 12.2731 22 12.2686 22C12.2256 22 12.1826 22 12.1396 22C12.1253 21.9908 12.1207 21.9822 12.1264 21.9748C12.1322 21.9673 12.1373 21.9639 12.143 21.9639Z" fill="#4F4F4F"/>
<path d="M22.6313 10.3105C22.6262 10.275 22.6124 10.236 22.6675 10.2263C22.6675 10.2549 22.6675 10.2836 22.6675 10.3122C22.6543 10.3329 22.6422 10.3311 22.6313 10.3105Z" fill="#A2A2A2"/>
<path d="M22.6309 10.3105C22.6429 10.3099 22.6549 10.3105 22.667 10.3122C22.667 10.3409 22.667 10.3695 22.667 10.3982C22.6538 10.4177 22.6412 10.4177 22.6309 10.3959C22.6309 10.3678 22.6309 10.3392 22.6309 10.3105Z" fill="#808080"/>
<path d="M0.666992 10.3552C0.678455 10.353 0.69049 10.3518 0.701953 10.3524C0.702526 10.381 0.702526 10.4103 0.703099 10.4389C0.69221 10.4601 0.680747 10.4618 0.666992 10.4412C0.666992 10.4126 0.666992 10.3839 0.666992 10.3552Z" fill="#606060"/>
<path d="M22.6309 10.3959C22.6429 10.3959 22.6549 10.3971 22.667 10.3982C22.667 10.4269 22.667 10.4555 22.667 10.4842C22.6532 10.5048 22.6417 10.5031 22.6314 10.4813C22.6309 10.4532 22.6309 10.4246 22.6309 10.3959Z" fill="#5D5D5D"/>
<path d="M0.666992 10.4412C0.679028 10.44 0.691063 10.4395 0.703099 10.4389C0.703672 10.4676 0.704245 10.4962 0.704818 10.5254C0.693356 10.5461 0.680747 10.5478 0.666992 10.5272C0.666992 10.4985 0.666992 10.4699 0.666992 10.4412Z" fill="#474747"/>
<path d="M0.666992 11.6877C0.679601 11.6877 0.691637 11.6889 0.704245 11.69C0.708257 11.7256 0.720866 11.7645 0.666992 11.7737C0.666992 11.7451 0.666992 11.7164 0.666992 11.6877Z" fill="#8F8F8F"/>
<path d="M22.6666 11.7737C22.6018 11.7451 22.6075 11.7164 22.6666 11.6877C22.6666 11.7164 22.6666 11.7451 22.6666 11.7737Z" fill="#9E9E9E"/>
<path d="M22.6308 10.4819C22.6429 10.4824 22.6549 10.4836 22.6664 10.4847C22.6664 10.5134 22.6664 10.5421 22.6664 10.5707C22.6268 10.5524 22.624 10.5191 22.6308 10.4819Z" fill="#444444"/>
<path d="M0.666992 10.5272C0.679601 10.5266 0.69221 10.526 0.704818 10.5255C0.709977 10.5621 0.704818 10.5948 0.666992 10.6131C0.666992 10.5845 0.666992 10.5558 0.666992 10.5272Z" fill="#343434"/>
<path d="M10.8936 22C10.9039 21.9467 10.9423 21.9593 10.9778 21.9639C10.9927 21.9713 10.9984 21.9788 10.9939 21.9874C10.9893 21.996 10.9847 22 10.9795 22C10.9503 22 10.9216 22 10.8936 22Z" fill="#929292"/>
<path d="M10.9793 22C10.9793 21.9879 10.9787 21.9759 10.9775 21.9639C11.0062 21.9633 11.0349 21.9627 11.0629 21.9622C11.0647 21.9748 11.0658 21.9874 11.0652 22C11.0366 22 11.0079 22 10.9793 22Z" fill="#737373"/>
<path d="M12.2709 0.0361069C12.2336 0.0429844 12.1998 0.0424113 12.1826 0C12.2113 0 12.2399 0 12.2686 0C12.2818 0.00687751 12.2864 0.0149013 12.2829 0.022925C12.2789 0.032095 12.2749 0.0361069 12.2709 0.0361069Z" fill="#595959"/>
<path d="M11.1943 22C11.1937 21.988 11.1926 21.9759 11.1914 21.9639C11.2287 21.957 11.2613 21.9616 11.2802 22C11.2516 22 11.2229 22 11.1943 22Z" fill="#373737"/>
<path d="M12.1425 21.9639C12.1414 21.9759 12.1403 21.988 12.1397 22C12.111 22 12.0824 22 12.0537 22C12.0726 21.9616 12.1053 21.957 12.1425 21.9639Z" fill="#373737"/>
<path d="M12.2708 0.0361069C12.2697 0.0240713 12.2686 0.0120356 12.2686 0C12.2972 0 12.3259 0 12.3545 0C12.3436 0.0527276 12.3058 0.0418382 12.2708 0.0361069Z" fill="#797979"/>
<path d="M12.2686 22C12.2686 21.9874 12.2691 21.9754 12.2708 21.9633C12.2995 21.9633 12.3276 21.9639 12.3562 21.9639C12.3689 21.9725 12.3729 21.9811 12.3683 21.9885C12.3637 21.996 12.3591 22 12.3545 22C12.3259 22 12.2972 22 12.2686 22Z" fill="#737373"/>
<path d="M12.3545 22C12.3545 21.988 12.3551 21.9759 12.3562 21.9639C12.3917 21.9587 12.4307 21.9455 12.4405 22C12.4118 22 12.3831 22 12.3545 22Z" fill="#929292"/>
<path d="M17.1167 17.2981C16.4444 16.6241 15.7704 15.9512 15.097 15.2772C11.8559 12.0368 8.61549 8.79576 5.37447 5.55588C5.04435 5.22519 4.81338 5.24468 4.53197 5.62007C3.34388 7.20591 2.75528 8.99292 2.72949 10.7702C2.73007 11.4654 2.77018 11.9566 2.85214 12.4449C3.55193 16.6275 7.04513 19.7465 11.2599 19.927C13.4017 20.0193 15.3388 19.4129 17.0582 18.1274C17.4204 17.8569 17.4376 17.6196 17.1167 17.2981ZM8.83615 10.6607C9.0184 10.6791 9.2081 10.5931 9.37603 10.7685C9.83109 11.2424 10.3039 11.6992 10.8094 12.203C10.1303 12.203 9.51014 12.2013 8.88945 12.2047C8.79717 12.2053 8.78628 12.1652 8.78686 12.0895C8.78915 11.6459 8.788 11.2023 8.78858 10.7587C8.78858 10.7192 8.77597 10.655 8.83615 10.6607ZM16.0764 17.7749C11.4393 20.828 5.05925 18.2753 3.80869 12.8518C3.29459 10.6246 3.66885 8.53728 4.88788 6.60184C4.97614 6.46142 5.02429 6.41385 5.17043 6.56172C6.18544 7.59163 7.21134 8.61179 8.23608 9.6331C8.27907 9.67551 8.34269 9.69786 8.39656 9.72996C8.38051 9.75231 8.36504 9.77466 8.34899 9.79701H7.52082C6.81187 9.79701 6.10291 9.79587 5.39395 9.79759C5.03862 9.79816 4.87986 9.95405 4.87871 10.3048C4.87757 11.0499 4.87757 11.7944 4.87871 12.5394C4.87929 12.9062 5.03403 13.0621 5.40083 13.0621C7.41995 13.0627 9.43965 13.0644 11.4593 13.0592C11.6078 13.0587 11.7092 13.1034 11.813 13.2077C13.2378 14.6388 14.6648 16.0676 16.0971 17.4912C16.2232 17.6162 16.2426 17.6655 16.0764 17.7749ZM5.73554 10.8109C5.73382 10.6957 5.75674 10.6515 5.88455 10.6533C6.51441 10.6601 7.14428 10.659 7.77414 10.6538C7.88934 10.6527 7.93462 10.675 7.93175 10.8028C7.92316 11.2178 7.92144 11.6333 7.9329 12.0483C7.93691 12.1933 7.88075 12.2082 7.76039 12.2059C7.44574 12.1984 7.13052 12.203 6.81588 12.203C6.50811 12.203 6.19977 12.1984 5.89257 12.2059C5.7768 12.2087 5.7321 12.1841 5.73496 12.0563C5.74299 11.6413 5.74184 11.2264 5.73554 10.8109Z" fill="black"/>
<path d="M20.2321 8.48109C19.1954 4.88931 16.1062 2.40539 12.3855 2.09991C10.1084 1.91307 8.05895 2.53319 6.23584 3.9064C5.92807 4.13795 5.91202 4.39069 6.18025 4.66236C6.38657 4.87155 6.59519 5.07787 6.80323 5.28534C7.07661 5.55815 7.34828 5.83382 7.6251 6.10377C7.76666 6.24189 7.93516 6.278 8.11741 6.18974C8.2905 6.10663 8.36787 5.96278 8.3587 5.77193C8.35239 5.63266 8.27044 5.53465 8.17759 5.44238C7.81824 5.0836 7.45889 4.72425 7.10241 4.36777C7.12934 4.30014 7.18608 4.27951 7.23365 4.25028C9.87863 2.60713 12.6319 2.42602 15.3904 3.85081C17.9929 5.19536 19.4263 7.41737 19.7083 10.3409C19.8854 12.1846 19.4212 13.8839 18.4193 15.44C18.3362 15.5689 18.2921 15.5638 18.1918 15.4612C17.7969 15.056 17.3946 14.6582 16.994 14.2588C16.6054 13.8725 16.2157 13.4879 15.7858 13.0627H15.9423C16.6014 13.0627 17.2599 13.0632 17.919 13.0621C18.3041 13.0615 18.4555 12.9131 18.456 12.5331C18.4572 11.8098 18.4566 11.0865 18.456 10.3632C18.456 9.93683 18.3173 9.79699 17.8915 9.79699C16.1733 9.79699 14.4545 9.7947 12.7357 9.80043C12.5872 9.801 12.4858 9.7563 12.382 9.65141C11.7029 8.96366 11.018 8.28164 10.3331 7.59963C10.0987 7.36579 9.84195 7.3463 9.65511 7.54059C9.47171 7.73144 9.49349 7.97445 9.72159 8.20255C12.4858 10.9679 15.25 13.7321 18.0153 16.4963C18.2738 16.7542 18.5368 16.7358 18.7569 16.4384C20.5405 14.0261 21.0626 11.3593 20.2321 8.48109ZM16.696 11.4728C16.6885 11.2436 16.6994 11.0143 16.6919 10.7856C16.6885 10.6819 16.7206 10.6395 16.8238 10.6561C16.8306 10.6572 16.8381 10.6561 16.845 10.6561C17.0874 10.6595 17.3298 10.6624 17.5723 10.6658C17.6342 10.9186 17.5705 11.1759 17.5969 11.3685C17.5969 11.6447 17.5918 11.8597 17.5992 12.074C17.6026 12.1778 17.5705 12.2202 17.468 12.2035C17.4605 12.2024 17.4536 12.203 17.4462 12.203C17.2037 12.2001 16.8857 12.2884 16.7401 12.168C16.5888 12.0436 16.704 11.7129 16.696 11.4728ZM15.0201 12.2047C14.9456 12.2064 14.9026 12.1674 14.8568 12.1216C14.3817 11.6465 13.9054 11.1719 13.389 10.6561C14.2034 10.6561 14.9657 10.6573 15.7274 10.655C15.8116 10.6544 15.8368 10.6813 15.8363 10.7644C15.8328 11.2075 15.8334 11.6511 15.8363 12.0941C15.8368 12.1766 15.8133 12.2064 15.7279 12.2047C15.4924 12.2001 15.2563 12.2001 15.0201 12.2047Z" fill="black"/>
<path d="M18.4543 8.93047C18.4377 9.17233 18.2537 9.35344 18.0262 9.35344C17.7987 9.35344 17.6141 9.17233 17.5975 8.93047C17.5941 8.88061 17.5969 8.83017 17.5964 8.78031C17.5918 8.28398 17.2938 7.9808 16.7928 7.97908C15.6197 7.97564 14.4465 7.9808 13.2733 7.97679C12.4772 7.97392 11.8685 7.53606 11.653 6.82309C11.6072 6.67178 11.5763 6.51761 11.5843 6.35886C11.5969 6.12044 11.7866 5.93646 12.0135 5.93646C12.2348 5.93646 12.413 6.10381 12.44 6.33708C12.5036 6.88212 12.7666 7.11767 13.3157 7.11825C14.4745 7.11939 15.6334 7.11366 16.7923 7.11997C17.7631 7.1257 18.448 7.80657 18.4549 8.75853C18.4549 8.81585 18.4583 8.87316 18.4543 8.93047Z" fill="black"/>
<path d="M19.573 3.53278C19.5707 3.76604 19.3856 3.9523 19.1517 3.95574C18.9122 3.95918 18.715 3.76776 18.711 3.52876C18.7075 3.28576 18.899 3.09204 19.1408 3.09376C19.3764 3.09605 19.5747 3.29779 19.573 3.53278Z" fill="#010101"/>
<path d="M9.36313 6.81273C9.36255 7.04714 9.17514 7.23684 8.94188 7.23914C8.70059 7.24143 8.50459 7.04198 8.51089 6.80012C8.51719 6.56571 8.70805 6.38346 8.9436 6.38632C9.17915 6.38919 9.3637 6.57718 9.36313 6.81273Z" fill="#010101"/>
</svg>
