<svg width="22" height="22" viewBox="0 0 22 22" fill="none" xmlns="http://www.w3.org/2000/svg">
<path d="M4.88723 8.06679C4.82306 7.83895 4.88508 7.63696 5.04702 7.47416C5.85585 6.66016 6.66511 5.84702 7.48213 5.0412C7.74356 4.78322 8.08725 4.78236 8.34867 5.03991C9.16612 5.84487 9.97754 6.65585 10.7838 7.47287C11.0409 7.73343 11.0319 8.09823 10.7911 8.34027C10.5448 8.58706 10.1791 8.58706 9.90691 8.32046C9.45597 7.87944 9.01495 7.42808 8.52741 6.93838V7.22393C8.52741 9.87008 8.52741 12.5167 8.52698 15.1628C8.52698 15.5435 8.37667 15.7679 8.07131 15.8502C7.70781 15.948 7.34991 15.7007 7.31502 15.3252C7.30727 15.2399 7.30856 15.1533 7.30856 15.0672V6.99567C7.22199 6.99911 7.19141 7.06285 7.14964 7.1042C6.74221 7.50818 6.34167 7.91906 5.92907 8.31788C5.56212 8.67234 5.02074 8.53753 4.88723 8.06679Z" fill="black"/>
<path d="M11.222 13.3104C10.9257 13.0132 10.905 12.6605 11.1617 12.3969C11.4184 12.1342 11.7944 12.1553 12.092 12.4512C12.4784 12.8354 12.863 13.2217 13.2489 13.6063C13.2975 13.655 13.3492 13.7006 13.4293 13.776V13.5098C13.4293 10.8568 13.4289 8.20375 13.4297 5.55028C13.4297 5.11614 13.6856 4.84481 14.0723 4.86117C14.3721 4.87366 14.6128 5.10107 14.6413 5.40212C14.6495 5.4874 14.6482 5.57396 14.6482 5.65967V13.726C14.7283 13.754 14.7515 13.6834 14.7868 13.6485C15.1895 13.2497 15.5879 12.847 15.9902 12.4478C16.2796 12.1605 16.6513 12.1364 16.9063 12.384C17.1711 12.642 17.1526 13.0132 16.8533 13.3139C16.0789 14.0908 15.3032 14.8669 14.5254 15.6409C14.2058 15.9592 13.8708 15.9574 13.5495 15.6374C12.7721 14.8635 11.9964 14.0874 11.222 13.3104Z" fill="black"/>
<path d="M21.9974 3.00104C21.9961 1.59139 21.0292 0.381159 19.6635 0.0434995C19.623 0.0335937 19.5851 0.0146434 19.5459 0H2.41099C1.92819 0.139543 1.46822 0.323878 1.07758 0.652493C0.551281 1.09481 0.201562 1.64523 0.040054 2.31452C0.0323016 2.34768 0.013782 2.37869 0 2.41099V19.5442C0.136959 20.0128 0.310957 20.4629 0.627944 20.8458C1.24469 21.5904 2.03543 21.9935 3.00147 21.9948C8.31703 22.0017 13.6322 22.0017 18.9473 21.9961C20.639 21.994 21.9957 20.6373 21.9974 18.9456C22.003 13.6309 22.0026 8.31573 21.9974 3.00104ZM20.7768 18.7905C20.7764 19.7901 20.2415 20.5098 19.3418 20.726C19.1592 20.77 18.9727 20.7738 18.7858 20.7738C16.1814 20.7743 13.577 20.7738 10.9727 20.7738C8.35363 20.7738 5.73505 20.7751 3.11603 20.7734C2.15947 20.7725 1.43419 20.2178 1.22703 19.3349C1.18569 19.16 1.18009 18.98 1.18009 18.8004C1.18009 13.5848 1.17966 8.36914 1.18009 3.1535C1.18052 2.16335 1.72878 1.43075 2.62548 1.22746C2.77794 1.19258 2.93859 1.1831 3.09536 1.1831C8.3545 1.18095 13.6136 1.17966 18.8728 1.18267C19.8056 1.1831 20.5133 1.73697 20.7256 2.60954C20.7704 2.79215 20.7768 2.97864 20.7768 3.16513C20.7773 8.37345 20.7773 13.5822 20.7768 18.7905Z" fill="black"/>
<path d="M10.7838 7.47287C11.0409 7.73343 11.0319 8.09823 10.7911 8.34027C10.5448 8.58706 10.1791 8.58706 9.90691 8.32046C9.45597 7.87944 9.01495 7.42808 8.52741 6.93838V7.22393C8.52741 9.87008 8.52741 12.5167 8.52698 15.1628C8.52698 15.5435 8.37667 15.7679 8.07131 15.8502C7.70781 15.948 7.34991 15.7007 7.31502 15.3252C7.30727 15.2399 7.30856 15.1533 7.30856 15.0672V6.99567C7.22199 6.99911 7.19141 7.06285 7.14964 7.1042C6.74221 7.50818 6.34167 7.91906 5.92907 8.31788C5.56212 8.67234 5.02074 8.53753 4.88723 8.06679C4.82306 7.83895 4.88508 7.63696 5.04702 7.47416C5.85585 6.66016 6.66511 5.84702 7.48213 5.0412C7.74356 4.78322 8.08725 4.78236 8.34867 5.03991C9.16612 5.84487 9.97754 6.65585 10.7838 7.47287Z" fill="#FEFEFE"/>
<path d="M16.8533 13.3139C16.0789 14.0908 15.3032 14.8669 14.5254 15.6409C14.2058 15.9592 13.8708 15.9574 13.5495 15.6374C12.7721 14.8635 11.9964 14.0874 11.222 13.3104C10.9257 13.0132 10.905 12.6605 11.1617 12.3969C11.4184 12.1342 11.7944 12.1553 12.092 12.4512C12.4784 12.8354 12.863 13.2217 13.2489 13.6063C13.2975 13.655 13.3492 13.7006 13.4293 13.776V13.5098C13.4293 10.8568 13.4289 8.20375 13.4297 5.55028C13.4297 5.11614 13.6856 4.84481 14.0723 4.86117C14.3721 4.87366 14.6128 5.10107 14.6413 5.40212C14.6495 5.4874 14.6482 5.57396 14.6482 5.65967V13.726C14.7283 13.754 14.7515 13.6834 14.7868 13.6485C15.1895 13.2497 15.5879 12.847 15.9902 12.4478C16.2796 12.1605 16.6513 12.1364 16.9063 12.384C17.1711 12.642 17.1526 13.0132 16.8533 13.3139Z" fill="#FEFEFE"/>
<path d="M10.7911 8.34027C10.5448 8.58706 10.1791 8.58706 9.90691 8.32046C9.45597 7.87944 9.01495 7.42808 8.52741 6.93838V7.22393C8.52741 9.87008 8.52741 12.5167 8.52698 15.1628C8.52698 15.5435 8.37667 15.7679 8.07131 15.8502C7.70781 15.948 7.34991 15.7007 7.31502 15.3252C7.30727 15.2399 7.30856 15.1533 7.30856 15.0672V6.99567C7.22199 6.99911 7.19141 7.06285 7.14964 7.1042C6.74221 7.50818 6.34167 7.91906 5.92907 8.31788C5.56212 8.67234 5.02074 8.53753 4.88723 8.06679C4.82306 7.83895 4.88508 7.63696 5.04702 7.47416C5.85585 6.66016 6.66511 5.84702 7.48213 5.0412C7.74356 4.78322 8.08725 4.78236 8.34867 5.03991C9.16612 5.84487 9.97754 6.65585 10.7838 7.47287C11.0409 7.73343 11.0319 8.09823 10.7911 8.34027Z" fill="black"/>
<path d="M16.8533 13.3139C16.0789 14.0908 15.3032 14.8669 14.5254 15.6409C14.2058 15.9592 13.8708 15.9574 13.5495 15.6374C12.7721 14.8635 11.9964 14.0874 11.222 13.3104C10.9257 13.0132 10.905 12.6605 11.1617 12.3969C11.4184 12.1342 11.7944 12.1553 12.092 12.4512C12.4784 12.8354 12.863 13.2217 13.2489 13.6063C13.2975 13.655 13.3492 13.7006 13.4293 13.776V13.5098C13.4293 10.8568 13.4289 8.20375 13.4297 5.55028C13.4297 5.11614 13.6856 4.84481 14.0723 4.86117C14.3721 4.87366 14.6128 5.10107 14.6413 5.40212C14.6495 5.4874 14.6482 5.57396 14.6482 5.65967V13.726C14.7283 13.754 14.7515 13.6834 14.7868 13.6485C15.1895 13.2497 15.5879 12.847 15.9902 12.4478C16.2796 12.1605 16.6513 12.1364 16.9063 12.384C17.1711 12.642 17.1526 13.0132 16.8533 13.3139Z" fill="black"/>
</svg>
