<svg width="23" height="22" viewBox="0 0 23 22" fill="none" xmlns="http://www.w3.org/2000/svg">
<path d="M4.33859 14.6658C4.33796 14.5652 4.33358 14.4614 4.30915 14.3652C4.25279 14.1395 4.05489 13.9964 3.82693 14.0001C3.60899 14.0039 3.41923 14.1445 3.36412 14.3595C3.33907 14.4558 3.33343 14.5596 3.33343 14.6596C3.33156 16.2203 3.33156 17.781 3.33343 19.3411C3.33343 19.4417 3.3397 19.5455 3.36537 19.6417C3.42174 19.8549 3.61525 19.9942 3.83257 19.9955C4.05051 19.9967 4.24653 19.8592 4.30477 19.6473C4.33107 19.5517 4.33796 19.4473 4.33796 19.3473C4.34047 18.5673 4.33984 17.7866 4.33984 17.0066C4.33984 16.2265 4.34047 15.4459 4.33859 14.6658ZM7.33964 14.6121C7.34027 14.3789 7.28641 14.1752 7.06659 14.0577C6.71275 13.8676 6.33511 14.1289 6.33261 14.5733C6.3276 15.5171 6.33073 16.4615 6.33073 17.4053C6.33073 18.0766 6.32823 18.7479 6.33198 19.4186C6.33386 19.7361 6.48667 19.9399 6.74532 19.9892C7.0741 20.0517 7.33526 19.8017 7.33713 19.4105C7.34089 18.6142 7.33839 17.8185 7.33839 17.0228C7.33839 16.219 7.33713 15.4152 7.33964 14.6121ZM10.3376 15.5921C10.3376 15.2408 10.3438 14.8896 10.3351 14.5383C10.3269 14.2139 10.124 14.0026 9.8378 14.0001C9.55223 13.9976 9.34869 14.2089 9.33053 14.5296C9.32803 14.5764 9.3299 14.6233 9.3299 14.6702C9.3299 16.2228 9.32928 17.7754 9.33116 19.3279C9.33116 19.4286 9.33429 19.533 9.35997 19.6286C9.45578 19.9874 9.88289 20.1149 10.161 19.8717C10.3094 19.7423 10.3382 19.5692 10.3382 19.3836C10.3369 18.5879 10.3376 17.7922 10.3376 16.9966V15.5921ZM13.2985 14.327C13.2159 14.1177 13.0568 14.002 12.832 14.0026C12.6071 14.0026 12.4449 14.1177 12.3679 14.3289C12.3372 14.4145 12.3303 14.5127 12.3303 14.6046C12.3285 16.1965 12.3285 17.7885 12.3303 19.3798C12.3303 19.4723 12.3372 19.5698 12.3654 19.6561C12.4368 19.8711 12.5977 19.983 12.8213 19.9942C13.0393 20.0049 13.239 19.8655 13.2998 19.6555C13.3273 19.5598 13.3349 19.4555 13.3349 19.3555C13.3374 18.5673 13.3361 17.7791 13.3361 16.9909C13.3361 16.2109 13.3361 15.4309 13.3367 14.6502C13.3374 14.5408 13.3392 14.4295 13.2985 14.327ZM16.3353 14.7139C16.3353 14.6596 16.3372 14.6052 16.3347 14.5502C16.3209 14.2133 16.1192 13.9958 15.8243 14.0001C15.5393 14.0039 15.3326 14.217 15.3301 14.5408C15.3239 15.3602 15.3283 16.1796 15.3276 16.9991C15.3276 17.8104 15.3245 18.6217 15.3295 19.433C15.3314 19.773 15.5343 19.9924 15.8268 19.9955C16.1211 19.998 16.3215 19.7805 16.3347 19.4423C16.3372 19.388 16.3353 19.3329 16.3353 19.2786V14.7139ZM19.3338 14.6689C19.3338 14.5908 19.3351 14.5121 19.3226 14.4358C19.2793 14.1714 19.0771 13.997 18.8247 14.0001C18.5729 14.0033 18.3756 14.1808 18.3356 14.4464C18.3255 14.5158 18.3268 14.5864 18.3268 14.6564V19.3379C18.3268 19.408 18.3255 19.4792 18.3356 19.548C18.3756 19.8142 18.5723 19.9924 18.8247 19.9955C19.0771 19.9986 19.2787 19.8249 19.3226 19.5598C19.3351 19.4836 19.3338 19.4048 19.3338 19.3267C19.3345 18.5542 19.3345 17.7822 19.3345 17.0097C19.3345 16.229 19.3345 15.449 19.3338 14.6689ZM19.3338 14.6689C19.3338 14.5908 19.3351 14.5121 19.3226 14.4358C19.2793 14.1714 19.0771 13.997 18.8247 14.0001C18.5729 14.0033 18.3756 14.1808 18.3356 14.4464C18.3255 14.5158 18.3268 14.5864 18.3268 14.6564V19.3379C18.3268 19.408 18.3255 19.4792 18.3356 19.548C18.3756 19.8142 18.5723 19.9924 18.8247 19.9955C19.0771 19.9986 19.2787 19.8249 19.3226 19.5598C19.3351 19.4836 19.3338 19.4048 19.3338 19.3267C19.3345 18.5542 19.3345 17.7822 19.3345 17.0097C19.3345 16.229 19.3345 15.449 19.3338 14.6689ZM16.3347 14.5502C16.3209 14.2133 16.1192 13.9958 15.8243 14.0001C15.5393 14.0039 15.3326 14.217 15.3301 14.5408C15.3239 15.3602 15.3283 16.1796 15.3276 16.9991C15.3276 17.8104 15.3245 18.6217 15.3295 19.433C15.3314 19.773 15.5343 19.9924 15.8268 19.9955C16.1211 19.998 16.3215 19.7805 16.3347 19.4423C16.3372 19.388 16.3353 19.3329 16.3353 19.2786V14.7139C16.3353 14.6596 16.3372 14.6052 16.3347 14.5502ZM12.832 14.0026C12.6071 14.0026 12.4449 14.1177 12.3679 14.3289C12.3372 14.4145 12.3303 14.5127 12.3303 14.6046C12.3285 16.1965 12.3285 17.7885 12.3303 19.3798C12.3303 19.4723 12.3372 19.5698 12.3654 19.6561C12.4368 19.8711 12.5977 19.983 12.8213 19.9942C13.0393 20.0049 13.239 19.8655 13.2998 19.6555C13.3273 19.5598 13.3349 19.4555 13.3349 19.3555C13.3374 18.5673 13.3361 17.7791 13.3361 16.9909C13.3361 16.2109 13.3361 15.4309 13.3367 14.6502C13.3374 14.5408 13.3392 14.4295 13.2985 14.327C13.2159 14.1177 13.0568 14.002 12.832 14.0026ZM10.3351 14.5383C10.3269 14.2139 10.124 14.0026 9.8378 14.0001C9.55223 13.9976 9.34869 14.2089 9.33053 14.5296C9.32803 14.5764 9.3299 14.6233 9.3299 14.6702C9.3299 16.2228 9.32928 17.7754 9.33116 19.3279C9.33116 19.4286 9.33429 19.533 9.35997 19.6286C9.45578 19.9874 9.88289 20.1149 10.161 19.8717C10.3094 19.7423 10.3382 19.5692 10.3382 19.3836C10.3369 18.5879 10.3376 17.7922 10.3376 16.9966V15.5921C10.3376 15.2408 10.3438 14.8896 10.3351 14.5383ZM7.06659 14.0577C6.71275 13.8676 6.33511 14.1289 6.33261 14.5733C6.3276 15.5171 6.33073 16.4615 6.33073 17.4053C6.33073 18.0766 6.32823 18.7479 6.33198 19.4186C6.33386 19.7361 6.48667 19.9399 6.74532 19.9892C7.0741 20.0517 7.33526 19.8017 7.33713 19.4105C7.34089 18.6142 7.33839 17.8185 7.33839 17.0228C7.33839 16.219 7.33713 15.4152 7.33964 14.6121C7.34027 14.3789 7.28641 14.1752 7.06659 14.0577ZM4.30915 14.3652C4.25279 14.1395 4.05489 13.9964 3.82693 14.0001C3.60899 14.0039 3.41923 14.1445 3.36412 14.3595C3.33907 14.4558 3.33343 14.5596 3.33343 14.6596C3.33156 16.2203 3.33156 17.781 3.33343 19.3411C3.33343 19.4417 3.3397 19.5455 3.36537 19.6417C3.42174 19.8549 3.61525 19.9942 3.83257 19.9955C4.05051 19.9967 4.24653 19.8592 4.30477 19.6473C4.33107 19.5517 4.33796 19.4473 4.33796 19.3473C4.34047 18.5673 4.33984 17.7866 4.33984 17.0066C4.33984 16.2265 4.34047 15.4459 4.33859 14.6658C4.33796 14.5652 4.33358 14.4614 4.30915 14.3652ZM21.6617 11.9957C20.4586 11.9957 19.2562 11.9925 18.0537 11.9994C17.8897 12 17.8295 11.9757 17.8295 11.7888C17.8371 8.89173 17.8358 5.99407 17.8321 3.09703C17.8314 2.96265 17.8715 2.89764 17.9949 2.83576C18.6374 2.51387 18.9468 1.84321 18.7859 1.15317C18.6211 0.443753 18.0143 0.000602971 17.2014 0.000602971C13.2891 -2.20646e-05 9.37625 -2.20646e-05 5.46398 -2.20646e-05C5.41701 -2.20646e-05 5.37004 -0.0006471 5.32307 0.00122801C4.59786 0.0331048 4.02671 0.497506 3.87578 1.17692C3.72234 1.86696 4.03172 2.51575 4.6943 2.84326C4.83772 2.91389 4.83208 3.0039 4.83208 3.12078C4.83146 6.00282 4.82895 8.88423 4.83709 11.7656C4.83772 11.9725 4.77259 12.0013 4.58909 12C3.4017 11.9919 2.21493 11.9957 1.02753 11.9957C0.493957 11.9957 0.333008 12.1582 0.333008 12.6969V21.2949C0.333008 21.8437 0.491452 22 1.0482 22H21.6416C22.1652 22 22.333 21.8343 22.333 21.3181V12.6732C22.333 12.1675 22.1633 11.9963 21.6617 11.9957ZM4.85463 1.42006C4.88719 1.19192 5.04125 1.04066 5.27109 1.01504C5.34061 1.00754 5.41075 1.00816 5.48152 1.00816C9.38376 1.00754 13.2866 1.00754 17.1895 1.00816C17.6141 1.00816 17.8277 1.18255 17.8189 1.51819C17.812 1.81071 17.6185 1.99759 17.3016 2.00197C16.8801 2.00759 16.4587 2.00322 16.0372 2.00322H11.3308C9.36372 2.00322 7.39663 2.00384 5.42954 2.00322C5.02372 2.00259 4.80265 1.7757 4.85463 1.42006ZM11.8337 9.19362C11.8331 9.04737 11.8619 8.99236 12.0241 8.99299C13.5628 8.99924 15.1009 8.99924 16.639 8.99299C16.8006 8.99236 16.8313 9.04487 16.8307 9.193C16.8238 10.0593 16.8231 10.9262 16.8313 11.7925C16.8325 11.9544 16.7956 12.0019 16.6277 12C15.8549 11.9907 15.0821 11.9957 14.3087 11.9957C13.5515 11.9957 12.7944 11.9907 12.0366 12C11.8707 12.0019 11.8312 11.9563 11.8331 11.7938C11.8412 10.9268 11.84 10.0599 11.8337 9.19362ZM16.6215 8.00481C15.8574 7.99668 15.0928 8.00106 14.3281 8.00106C13.5634 8.00106 12.7988 7.99606 12.0347 8.00543C11.8681 8.00731 11.8325 7.9598 11.8331 7.79917C11.8393 6.27033 11.84 4.7415 11.8325 3.21266C11.8318 3.03328 11.8819 2.99452 12.0541 2.99515C13.5753 3.00202 15.0965 3.00265 16.6177 2.99452C16.8044 2.99327 16.8313 3.05515 16.8307 3.22016C16.825 4.74962 16.8238 6.27846 16.8319 7.8073C16.8325 7.98106 16.7762 8.00668 16.6215 8.00481ZM10.8292 5.51904C10.8292 6.28408 10.8248 7.0485 10.8329 7.81292C10.8348 7.96543 10.7947 8.00543 10.6413 8.00481C9.10445 7.99856 7.56823 7.99918 6.03138 8.00418C5.88608 8.00481 5.8341 7.97731 5.83473 7.8173C5.84162 6.28033 5.84099 4.74337 5.83598 3.20703C5.83536 3.04953 5.86855 2.99452 6.03827 2.99515C7.5676 3.00202 9.09631 3.0014 10.6256 2.99515C10.7891 2.99452 10.8348 3.0389 10.8329 3.20266C10.8248 3.97458 10.8292 4.74712 10.8292 5.51904ZM5.83598 9.18112C5.83536 9.04362 5.86416 8.99299 6.01509 8.99361C7.56134 8.99924 9.10758 8.99924 10.6532 8.99361C10.8048 8.99299 10.8329 9.04424 10.8323 9.18175C10.8267 10.0562 10.826 10.9306 10.8329 11.805C10.8342 11.9557 10.7972 12.0013 10.6413 11.9994C9.86849 11.9913 9.09568 11.9957 8.32225 11.9957C7.55695 11.9957 6.79166 11.9913 6.02699 11.9994C5.87105 12.0013 5.8341 11.955 5.83536 11.805C5.84225 10.9306 5.84162 10.0555 5.83598 9.18112ZM21.331 20.7455C21.3316 20.953 21.2803 20.998 21.0767 20.9974C17.8289 20.9905 14.5811 20.9924 11.3327 20.9924C8.08489 20.9924 4.83709 20.9899 1.58929 20.9974C1.38513 20.998 1.3344 20.9524 1.33503 20.7449C1.34317 18.2466 1.3438 15.7484 1.33503 13.2501C1.3344 13.042 1.38576 12.9982 1.58929 12.9982C8.08552 13.0045 14.5811 13.0045 21.0773 12.9982C21.2815 12.9982 21.3316 13.0432 21.331 13.2501C21.3228 15.749 21.3228 18.2473 21.331 20.7455ZM19.3226 14.4358C19.2793 14.1714 19.0771 13.997 18.8247 14.0001C18.5729 14.0033 18.3756 14.1808 18.3356 14.4464C18.3255 14.5158 18.3268 14.5864 18.3268 14.6564V19.3379C18.3268 19.408 18.3255 19.4792 18.3356 19.548C18.3756 19.8142 18.5723 19.9924 18.8247 19.9955C19.0771 19.9986 19.2787 19.8249 19.3226 19.5598C19.3351 19.4836 19.3338 19.4048 19.3338 19.3267C19.3345 18.5542 19.3345 17.7822 19.3345 17.0097C19.3345 16.229 19.3345 15.449 19.3338 14.6689C19.3338 14.5908 19.3351 14.5121 19.3226 14.4358ZM16.3347 14.5502C16.3209 14.2133 16.1192 13.9958 15.8243 14.0001C15.5393 14.0039 15.3326 14.217 15.3301 14.5408C15.3239 15.3602 15.3283 16.1796 15.3276 16.9991C15.3276 17.8104 15.3245 18.6217 15.3295 19.433C15.3314 19.773 15.5343 19.9924 15.8268 19.9955C16.1211 19.998 16.3215 19.7805 16.3347 19.4423C16.3372 19.388 16.3353 19.3329 16.3353 19.2786V14.7139C16.3353 14.6596 16.3372 14.6052 16.3347 14.5502ZM12.832 14.0026C12.6071 14.0026 12.4449 14.1177 12.3679 14.3289C12.3372 14.4145 12.3303 14.5127 12.3303 14.6046C12.3285 16.1965 12.3285 17.7885 12.3303 19.3798C12.3303 19.4723 12.3372 19.5698 12.3654 19.6561C12.4368 19.8711 12.5977 19.983 12.8213 19.9942C13.0393 20.0049 13.239 19.8655 13.2998 19.6555C13.3273 19.5598 13.3349 19.4555 13.3349 19.3555C13.3374 18.5673 13.3361 17.7791 13.3361 16.9909C13.3361 16.2109 13.3361 15.4309 13.3367 14.6502C13.3374 14.5408 13.3392 14.4295 13.2985 14.327C13.2159 14.1177 13.0568 14.002 12.832 14.0026ZM10.3351 14.5383C10.3269 14.2139 10.124 14.0026 9.8378 14.0001C9.55223 13.9976 9.34869 14.2089 9.33053 14.5296C9.32803 14.5764 9.3299 14.6233 9.3299 14.6702C9.3299 16.2228 9.32928 17.7754 9.33116 19.3279C9.33116 19.4286 9.33429 19.533 9.35997 19.6286C9.45578 19.9874 9.88289 20.1149 10.161 19.8717C10.3094 19.7423 10.3382 19.5692 10.3382 19.3836C10.3369 18.5879 10.3376 17.7922 10.3376 16.9966V15.5921C10.3376 15.2408 10.3438 14.8896 10.3351 14.5383ZM7.06659 14.0577C6.71275 13.8676 6.33511 14.1289 6.33261 14.5733C6.3276 15.5171 6.33073 16.4615 6.33073 17.4053C6.33073 18.0766 6.32823 18.7479 6.33198 19.4186C6.33386 19.7361 6.48667 19.9399 6.74532 19.9892C7.0741 20.0517 7.33526 19.8017 7.33713 19.4105C7.34089 18.6142 7.33839 17.8185 7.33839 17.0228C7.33839 16.219 7.33713 15.4152 7.33964 14.6121C7.34027 14.3789 7.28641 14.1752 7.06659 14.0577ZM4.30915 14.3652C4.25279 14.1395 4.05489 13.9964 3.82693 14.0001C3.60899 14.0039 3.41923 14.1445 3.36412 14.3595C3.33907 14.4558 3.33343 14.5596 3.33343 14.6596C3.33156 16.2203 3.33156 17.781 3.33343 19.3411C3.33343 19.4417 3.3397 19.5455 3.36537 19.6417C3.42174 19.8549 3.61525 19.9942 3.83257 19.9955C4.05051 19.9967 4.24653 19.8592 4.30477 19.6473C4.33107 19.5517 4.33796 19.4473 4.33796 19.3473C4.34047 18.5673 4.33984 17.7866 4.33984 17.0066C4.33984 16.2265 4.34047 15.4459 4.33859 14.6658C4.33796 14.5652 4.33358 14.4614 4.30915 14.3652Z" fill="#FEFEFE"/>
<path d="M4.33859 14.6658C4.33796 14.5652 4.33358 14.4614 4.30915 14.3652C4.25279 14.1395 4.05489 13.9964 3.82693 14.0001C3.60899 14.0039 3.41923 14.1445 3.36412 14.3595C3.33907 14.4558 3.33343 14.5596 3.33343 14.6596C3.33156 16.2203 3.33156 17.781 3.33343 19.3411C3.33343 19.4417 3.3397 19.5455 3.36537 19.6417C3.42174 19.8549 3.61525 19.9942 3.83257 19.9955C4.05051 19.9967 4.24653 19.8592 4.30477 19.6473C4.33107 19.5517 4.33796 19.4473 4.33796 19.3473C4.34047 18.5673 4.33984 17.7866 4.33984 17.0066C4.33984 16.2265 4.34047 15.4459 4.33859 14.6658ZM7.33964 14.6121C7.34027 14.3789 7.28641 14.1752 7.06659 14.0577C6.71275 13.8676 6.33511 14.1289 6.33261 14.5733C6.3276 15.5171 6.33073 16.4615 6.33073 17.4053C6.33073 18.0766 6.32823 18.7479 6.33198 19.4186C6.33386 19.7361 6.48667 19.9399 6.74532 19.9892C7.0741 20.0517 7.33526 19.8017 7.33713 19.4105C7.34089 18.6142 7.33839 17.8185 7.33839 17.0228C7.33839 16.219 7.33713 15.4152 7.33964 14.6121ZM10.3376 15.5921C10.3376 15.2408 10.3438 14.8896 10.3351 14.5383C10.3269 14.2139 10.124 14.0026 9.8378 14.0001C9.55223 13.9976 9.34869 14.2089 9.33053 14.5296C9.32803 14.5764 9.3299 14.6233 9.3299 14.6702C9.3299 16.2228 9.32928 17.7754 9.33116 19.3279C9.33116 19.4286 9.33429 19.533 9.35997 19.6286C9.45578 19.9874 9.88289 20.1149 10.161 19.8717C10.3094 19.7423 10.3382 19.5692 10.3382 19.3836C10.3369 18.5879 10.3376 17.7922 10.3376 16.9966V15.5921ZM13.2985 14.327C13.2159 14.1177 13.0568 14.002 12.832 14.0026C12.6071 14.0026 12.4449 14.1177 12.3679 14.3289C12.3372 14.4145 12.3303 14.5127 12.3303 14.6046C12.3285 16.1965 12.3285 17.7885 12.3303 19.3798C12.3303 19.4723 12.3372 19.5698 12.3654 19.6561C12.4368 19.8711 12.5977 19.983 12.8213 19.9942C13.0393 20.0049 13.239 19.8655 13.2998 19.6555C13.3273 19.5598 13.3349 19.4555 13.3349 19.3555C13.3374 18.5673 13.3361 17.7791 13.3361 16.9909C13.3361 16.2109 13.3361 15.4309 13.3367 14.6502C13.3374 14.5408 13.3392 14.4295 13.2985 14.327ZM16.3353 14.7139C16.3353 14.6596 16.3372 14.6052 16.3347 14.5502C16.3209 14.2133 16.1192 13.9958 15.8243 14.0001C15.5393 14.0039 15.3326 14.217 15.3301 14.5408C15.3239 15.3602 15.3283 16.1796 15.3276 16.9991C15.3276 17.8104 15.3245 18.6217 15.3295 19.433C15.3314 19.773 15.5343 19.9924 15.8268 19.9955C16.1211 19.998 16.3215 19.7805 16.3347 19.4423C16.3372 19.388 16.3353 19.3329 16.3353 19.2786V14.7139ZM19.3338 14.6689C19.3338 14.5908 19.3351 14.5121 19.3226 14.4358C19.2793 14.1714 19.0771 13.997 18.8247 14.0001C18.5729 14.0033 18.3756 14.1808 18.3356 14.4464C18.3255 14.5158 18.3268 14.5864 18.3268 14.6564V19.3379C18.3268 19.408 18.3255 19.4792 18.3356 19.548C18.3756 19.8142 18.5723 19.9924 18.8247 19.9955C19.0771 19.9986 19.2787 19.8249 19.3226 19.5598C19.3351 19.4836 19.3338 19.4048 19.3338 19.3267C19.3345 18.5542 19.3345 17.7822 19.3345 17.0097C19.3345 16.229 19.3345 15.449 19.3338 14.6689ZM19.3338 14.6689C19.3338 14.5908 19.3351 14.5121 19.3226 14.4358C19.2793 14.1714 19.0771 13.997 18.8247 14.0001C18.5729 14.0033 18.3756 14.1808 18.3356 14.4464C18.3255 14.5158 18.3268 14.5864 18.3268 14.6564V19.3379C18.3268 19.408 18.3255 19.4792 18.3356 19.548C18.3756 19.8142 18.5723 19.9924 18.8247 19.9955C19.0771 19.9986 19.2787 19.8249 19.3226 19.5598C19.3351 19.4836 19.3338 19.4048 19.3338 19.3267C19.3345 18.5542 19.3345 17.7822 19.3345 17.0097C19.3345 16.229 19.3345 15.449 19.3338 14.6689ZM16.3347 14.5502C16.3209 14.2133 16.1192 13.9958 15.8243 14.0001C15.5393 14.0039 15.3326 14.217 15.3301 14.5408C15.3239 15.3602 15.3283 16.1796 15.3276 16.9991C15.3276 17.8104 15.3245 18.6217 15.3295 19.433C15.3314 19.773 15.5343 19.9924 15.8268 19.9955C16.1211 19.998 16.3215 19.7805 16.3347 19.4423C16.3372 19.388 16.3353 19.3329 16.3353 19.2786V14.7139C16.3353 14.6596 16.3372 14.6052 16.3347 14.5502ZM12.832 14.0026C12.6071 14.0026 12.4449 14.1177 12.3679 14.3289C12.3372 14.4145 12.3303 14.5127 12.3303 14.6046C12.3285 16.1965 12.3285 17.7885 12.3303 19.3798C12.3303 19.4723 12.3372 19.5698 12.3654 19.6561C12.4368 19.8711 12.5977 19.983 12.8213 19.9942C13.0393 20.0049 13.239 19.8655 13.2998 19.6555C13.3273 19.5598 13.3349 19.4555 13.3349 19.3555C13.3374 18.5673 13.3361 17.7791 13.3361 16.9909C13.3361 16.2109 13.3361 15.4309 13.3367 14.6502C13.3374 14.5408 13.3392 14.4295 13.2985 14.327C13.2159 14.1177 13.0568 14.002 12.832 14.0026ZM10.3351 14.5383C10.3269 14.2139 10.124 14.0026 9.8378 14.0001C9.55223 13.9976 9.34869 14.2089 9.33053 14.5296C9.32803 14.5764 9.3299 14.6233 9.3299 14.6702C9.3299 16.2228 9.32928 17.7754 9.33116 19.3279C9.33116 19.4286 9.33429 19.533 9.35997 19.6286C9.45578 19.9874 9.88289 20.1149 10.161 19.8717C10.3094 19.7423 10.3382 19.5692 10.3382 19.3836C10.3369 18.5879 10.3376 17.7922 10.3376 16.9966V15.5921C10.3376 15.2408 10.3438 14.8896 10.3351 14.5383ZM7.06659 14.0577C6.71275 13.8676 6.33511 14.1289 6.33261 14.5733C6.3276 15.5171 6.33073 16.4615 6.33073 17.4053C6.33073 18.0766 6.32823 18.7479 6.33198 19.4186C6.33386 19.7361 6.48667 19.9399 6.74532 19.9892C7.0741 20.0517 7.33526 19.8017 7.33713 19.4105C7.34089 18.6142 7.33839 17.8185 7.33839 17.0228C7.33839 16.219 7.33713 15.4152 7.33964 14.6121C7.34027 14.3789 7.28641 14.1752 7.06659 14.0577ZM4.30915 14.3652C4.25279 14.1395 4.05489 13.9964 3.82693 14.0001C3.60899 14.0039 3.41923 14.1445 3.36412 14.3595C3.33907 14.4558 3.33343 14.5596 3.33343 14.6596C3.33156 16.2203 3.33156 17.781 3.33343 19.3411C3.33343 19.4417 3.3397 19.5455 3.36537 19.6417C3.42174 19.8549 3.61525 19.9942 3.83257 19.9955C4.05051 19.9967 4.24653 19.8592 4.30477 19.6473C4.33107 19.5517 4.33796 19.4473 4.33796 19.3473C4.34047 18.5673 4.33984 17.7866 4.33984 17.0066C4.33984 16.2265 4.34047 15.4459 4.33859 14.6658C4.33796 14.5652 4.33358 14.4614 4.30915 14.3652ZM21.6617 11.9957C20.4586 11.9957 19.2562 11.9925 18.0537 11.9994C17.8897 12 17.8295 11.9757 17.8295 11.7888C17.8371 8.89173 17.8358 5.99407 17.8321 3.09703C17.8314 2.96265 17.8715 2.89764 17.9949 2.83576C18.6374 2.51387 18.9468 1.84321 18.7859 1.15317C18.6211 0.443753 18.0143 0.000602971 17.2014 0.000602971C13.2891 -2.20646e-05 9.37625 -2.20646e-05 5.46398 -2.20646e-05C5.41701 -2.20646e-05 5.37004 -0.0006471 5.32307 0.00122801C4.59786 0.0331048 4.02671 0.497506 3.87578 1.17692C3.72234 1.86696 4.03172 2.51575 4.6943 2.84326C4.83772 2.91389 4.83208 3.0039 4.83208 3.12078C4.83146 6.00282 4.82895 8.88423 4.83709 11.7656C4.83772 11.9725 4.77259 12.0013 4.58909 12C3.4017 11.9919 2.21493 11.9957 1.02753 11.9957C0.493957 11.9957 0.333008 12.1582 0.333008 12.6969V21.2949C0.333008 21.8437 0.491452 22 1.0482 22H21.6416C22.1652 22 22.333 21.8343 22.333 21.3181V12.6732C22.333 12.1675 22.1633 11.9963 21.6617 11.9957ZM4.85463 1.42006C4.88719 1.19192 5.04125 1.04066 5.27109 1.01504C5.34061 1.00754 5.41075 1.00816 5.48152 1.00816C9.38376 1.00754 13.2866 1.00754 17.1895 1.00816C17.6141 1.00816 17.8277 1.18255 17.8189 1.51819C17.812 1.81071 17.6185 1.99759 17.3016 2.00197C16.8801 2.00759 16.4587 2.00322 16.0372 2.00322H11.3308C9.36372 2.00322 7.39663 2.00384 5.42954 2.00322C5.02372 2.00259 4.80265 1.7757 4.85463 1.42006ZM11.8337 9.19362C11.8331 9.04737 11.8619 8.99236 12.0241 8.99299C13.5628 8.99924 15.1009 8.99924 16.639 8.99299C16.8006 8.99236 16.8313 9.04487 16.8307 9.193C16.8238 10.0593 16.8231 10.9262 16.8313 11.7925C16.8325 11.9544 16.7956 12.0019 16.6277 12C15.8549 11.9907 15.0821 11.9957 14.3087 11.9957C13.5515 11.9957 12.7944 11.9907 12.0366 12C11.8707 12.0019 11.8312 11.9563 11.8331 11.7938C11.8412 10.9268 11.84 10.0599 11.8337 9.19362ZM16.6215 8.00481C15.8574 7.99668 15.0928 8.00106 14.3281 8.00106C13.5634 8.00106 12.7988 7.99606 12.0347 8.00543C11.8681 8.00731 11.8325 7.9598 11.8331 7.79917C11.8393 6.27033 11.84 4.7415 11.8325 3.21266C11.8318 3.03328 11.8819 2.99452 12.0541 2.99515C13.5753 3.00202 15.0965 3.00265 16.6177 2.99452C16.8044 2.99327 16.8313 3.05515 16.8307 3.22016C16.825 4.74962 16.8238 6.27846 16.8319 7.8073C16.8325 7.98106 16.7762 8.00668 16.6215 8.00481ZM10.8292 5.51904C10.8292 6.28408 10.8248 7.0485 10.8329 7.81292C10.8348 7.96543 10.7947 8.00543 10.6413 8.00481C9.10445 7.99856 7.56823 7.99918 6.03138 8.00418C5.88608 8.00481 5.8341 7.97731 5.83473 7.8173C5.84162 6.28033 5.84099 4.74337 5.83598 3.20703C5.83536 3.04953 5.86855 2.99452 6.03827 2.99515C7.5676 3.00202 9.09631 3.0014 10.6256 2.99515C10.7891 2.99452 10.8348 3.0389 10.8329 3.20266C10.8248 3.97458 10.8292 4.74712 10.8292 5.51904ZM5.83598 9.18112C5.83536 9.04362 5.86416 8.99299 6.01509 8.99361C7.56134 8.99924 9.10758 8.99924 10.6532 8.99361C10.8048 8.99299 10.8329 9.04424 10.8323 9.18175C10.8267 10.0562 10.826 10.9306 10.8329 11.805C10.8342 11.9557 10.7972 12.0013 10.6413 11.9994C9.86849 11.9913 9.09568 11.9957 8.32225 11.9957C7.55695 11.9957 6.79166 11.9913 6.02699 11.9994C5.87105 12.0013 5.8341 11.955 5.83536 11.805C5.84225 10.9306 5.84162 10.0555 5.83598 9.18112ZM21.331 20.7455C21.3316 20.953 21.2803 20.998 21.0767 20.9974C17.8289 20.9905 14.5811 20.9924 11.3327 20.9924C8.08489 20.9924 4.83709 20.9899 1.58929 20.9974C1.38513 20.998 1.3344 20.9524 1.33503 20.7449C1.34317 18.2466 1.3438 15.7484 1.33503 13.2501C1.3344 13.042 1.38576 12.9982 1.58929 12.9982C8.08552 13.0045 14.5811 13.0045 21.0773 12.9982C21.2815 12.9982 21.3316 13.0432 21.331 13.2501C21.3228 15.749 21.3228 18.2473 21.331 20.7455ZM19.3226 14.4358C19.2793 14.1714 19.0771 13.997 18.8247 14.0001C18.5729 14.0033 18.3756 14.1808 18.3356 14.4464C18.3255 14.5158 18.3268 14.5864 18.3268 14.6564V19.3379C18.3268 19.408 18.3255 19.4792 18.3356 19.548C18.3756 19.8142 18.5723 19.9924 18.8247 19.9955C19.0771 19.9986 19.2787 19.8249 19.3226 19.5598C19.3351 19.4836 19.3338 19.4048 19.3338 19.3267C19.3345 18.5542 19.3345 17.7822 19.3345 17.0097C19.3345 16.229 19.3345 15.449 19.3338 14.6689C19.3338 14.5908 19.3351 14.5121 19.3226 14.4358ZM16.3347 14.5502C16.3209 14.2133 16.1192 13.9958 15.8243 14.0001C15.5393 14.0039 15.3326 14.217 15.3301 14.5408C15.3239 15.3602 15.3283 16.1796 15.3276 16.9991C15.3276 17.8104 15.3245 18.6217 15.3295 19.433C15.3314 19.773 15.5343 19.9924 15.8268 19.9955C16.1211 19.998 16.3215 19.7805 16.3347 19.4423C16.3372 19.388 16.3353 19.3329 16.3353 19.2786V14.7139C16.3353 14.6596 16.3372 14.6052 16.3347 14.5502ZM12.832 14.0026C12.6071 14.0026 12.4449 14.1177 12.3679 14.3289C12.3372 14.4145 12.3303 14.5127 12.3303 14.6046C12.3285 16.1965 12.3285 17.7885 12.3303 19.3798C12.3303 19.4723 12.3372 19.5698 12.3654 19.6561C12.4368 19.8711 12.5977 19.983 12.8213 19.9942C13.0393 20.0049 13.239 19.8655 13.2998 19.6555C13.3273 19.5598 13.3349 19.4555 13.3349 19.3555C13.3374 18.5673 13.3361 17.7791 13.3361 16.9909C13.3361 16.2109 13.3361 15.4309 13.3367 14.6502C13.3374 14.5408 13.3392 14.4295 13.2985 14.327C13.2159 14.1177 13.0568 14.002 12.832 14.0026ZM10.3351 14.5383C10.3269 14.2139 10.124 14.0026 9.8378 14.0001C9.55223 13.9976 9.34869 14.2089 9.33053 14.5296C9.32803 14.5764 9.3299 14.6233 9.3299 14.6702C9.3299 16.2228 9.32928 17.7754 9.33116 19.3279C9.33116 19.4286 9.33429 19.533 9.35997 19.6286C9.45578 19.9874 9.88289 20.1149 10.161 19.8717C10.3094 19.7423 10.3382 19.5692 10.3382 19.3836C10.3369 18.5879 10.3376 17.7922 10.3376 16.9966V15.5921C10.3376 15.2408 10.3438 14.8896 10.3351 14.5383ZM7.06659 14.0577C6.71275 13.8676 6.33511 14.1289 6.33261 14.5733C6.3276 15.5171 6.33073 16.4615 6.33073 17.4053C6.33073 18.0766 6.32823 18.7479 6.33198 19.4186C6.33386 19.7361 6.48667 19.9399 6.74532 19.9892C7.0741 20.0517 7.33526 19.8017 7.33713 19.4105C7.34089 18.6142 7.33839 17.8185 7.33839 17.0228C7.33839 16.219 7.33713 15.4152 7.33964 14.6121C7.34027 14.3789 7.28641 14.1752 7.06659 14.0577ZM4.30915 14.3652C4.25279 14.1395 4.05489 13.9964 3.82693 14.0001C3.60899 14.0039 3.41923 14.1445 3.36412 14.3595C3.33907 14.4558 3.33343 14.5596 3.33343 14.6596C3.33156 16.2203 3.33156 17.781 3.33343 19.3411C3.33343 19.4417 3.3397 19.5455 3.36537 19.6417C3.42174 19.8549 3.61525 19.9942 3.83257 19.9955C4.05051 19.9967 4.24653 19.8592 4.30477 19.6473C4.33107 19.5517 4.33796 19.4473 4.33796 19.3473C4.34047 18.5673 4.33984 17.7866 4.33984 17.0066C4.33984 16.2265 4.34047 15.4459 4.33859 14.6658C4.33796 14.5652 4.33358 14.4614 4.30915 14.3652Z" fill="black"/>
<path d="M4.33859 14.6658C4.34047 15.4458 4.33985 16.2265 4.33985 17.0066C4.33985 17.7866 4.34047 18.5673 4.33797 19.3473C4.33797 19.4473 4.33108 19.5517 4.30477 19.6473C4.24653 19.8592 4.05051 19.9967 3.83257 19.9955C3.61526 19.9942 3.42174 19.8548 3.36538 19.6417C3.3397 19.5454 3.33344 19.4417 3.33344 19.3411C3.33156 17.781 3.33156 16.2203 3.33344 14.6595C3.33344 14.5595 3.33908 14.4558 3.36413 14.3595C3.41924 14.1445 3.609 14.0039 3.82694 14.0001C4.0549 13.9964 4.25279 14.1395 4.30916 14.3652C4.33358 14.4614 4.33797 14.5652 4.33859 14.6658Z" fill="#FEFEFE"/>
<path d="M7.33995 14.6121C7.33745 15.4152 7.3387 16.219 7.3387 17.0228C7.3387 17.8185 7.34121 18.6142 7.33745 19.4104C7.33557 19.8017 7.07442 20.0517 6.74563 19.9892C6.48698 19.9399 6.33418 19.7361 6.3323 19.4186C6.32854 18.7479 6.33104 18.0766 6.33104 17.4053C6.33104 16.4615 6.32791 15.5171 6.33292 14.5733C6.33543 14.1289 6.71306 13.8676 7.0669 14.0576C7.28672 14.1752 7.34058 14.3789 7.33995 14.6121Z" fill="#FEFEFE"/>
<path d="M10.3374 15.5921V16.9966C10.3374 17.7922 10.3368 18.5879 10.3381 19.3836C10.3381 19.5692 10.3093 19.7423 10.1608 19.8717C9.88277 20.1149 9.45566 19.9874 9.35984 19.6286C9.33416 19.533 9.33103 19.4286 9.33103 19.3279C9.32915 17.7754 9.32978 16.2228 9.32978 14.6702C9.32978 14.6233 9.3279 14.5764 9.3304 14.5295C9.34857 14.2089 9.5521 13.9976 9.83768 14.0001C10.1239 14.0026 10.3268 14.2139 10.3349 14.5383C10.3437 14.8896 10.3374 15.2408 10.3374 15.5921Z" fill="#FEFEFE"/>
<path d="M13.2987 14.327C13.3394 14.4295 13.3375 14.5408 13.3369 14.6502C13.3363 15.4308 13.3363 16.2109 13.3363 16.9909C13.3363 17.7791 13.3375 18.5673 13.335 19.3554C13.335 19.4554 13.3275 19.5598 13.3 19.6554C13.2392 19.8655 13.0394 20.0048 12.8215 19.9942C12.5979 19.983 12.437 19.8711 12.3656 19.6561C12.3374 19.5698 12.3305 19.4723 12.3305 19.3798C12.3286 17.7885 12.3286 16.1965 12.3305 14.6045C12.3305 14.5127 12.3374 14.4145 12.3681 14.3289C12.4451 14.1176 12.6073 14.0026 12.8321 14.0026C13.057 14.002 13.216 14.1176 13.2987 14.327Z" fill="#FEFEFE"/>
<path d="M16.3348 14.7139V19.2786C16.3348 19.3329 16.3367 19.3879 16.3342 19.4423C16.321 19.7805 16.1206 19.998 15.8263 19.9955C15.5338 19.9923 15.3309 19.773 15.329 19.4329C15.324 18.6216 15.3271 17.8103 15.3271 16.999C15.3278 16.1796 15.3234 15.3602 15.3296 14.5408C15.3321 14.217 15.5388 14.0039 15.8238 14.0001C16.1187 13.9958 16.3204 14.2133 16.3342 14.5502C16.3367 14.6052 16.3348 14.6595 16.3348 14.7139Z" fill="#FEFEFE"/>
<path d="M19.3349 17.0097C19.3349 17.7823 19.3349 18.5542 19.3342 19.3267C19.3342 19.4048 19.3355 19.4836 19.323 19.5599C19.2791 19.8249 19.0775 19.9986 18.8251 19.9955C18.5727 19.9924 18.376 19.8142 18.336 19.548C18.3259 19.4792 18.3272 19.408 18.3272 19.338V14.6565C18.3272 14.5864 18.3259 14.5158 18.336 14.4464C18.376 14.1808 18.5733 14.0033 18.8251 14.0002C19.0775 13.997 19.2797 14.1714 19.323 14.4358C19.3355 14.5121 19.3342 14.5908 19.3342 14.669C19.3349 15.449 19.3349 16.229 19.3349 17.0097Z" fill="#FEFEFE"/>
<path d="M4.33985 17.0066C4.33985 17.7866 4.34047 18.5673 4.33797 19.3473C4.33797 19.4473 4.33108 19.5517 4.30477 19.6473C4.24653 19.8592 4.05051 19.9967 3.83257 19.9955C3.61526 19.9942 3.42174 19.8548 3.36538 19.6417C3.3397 19.5454 3.33344 19.4417 3.33344 19.3411C3.33156 17.781 3.33156 16.2203 3.33344 14.6595C3.33344 14.5595 3.33908 14.4558 3.36413 14.3595C3.41924 14.1445 3.609 14.0039 3.82694 14.0001C4.0549 13.9964 4.25279 14.1395 4.30916 14.3652C4.33358 14.4614 4.33797 14.5652 4.33859 14.6658C4.34047 15.4458 4.33985 16.2265 4.33985 17.0066Z" fill="black"/>
<path d="M7.3387 17.0228C7.3387 17.8185 7.34121 18.6142 7.33745 19.4104C7.33557 19.8017 7.07442 20.0517 6.74563 19.9892C6.48698 19.9399 6.33418 19.7361 6.3323 19.4186C6.32854 18.7479 6.33104 18.0766 6.33104 17.4053C6.33104 16.4615 6.32791 15.5171 6.33292 14.5733C6.33543 14.1289 6.71306 13.8676 7.0669 14.0576C7.28672 14.1752 7.34058 14.3789 7.33995 14.6121C7.33745 15.4152 7.3387 16.219 7.3387 17.0228Z" fill="black"/>
<path d="M10.3374 16.9966C10.3374 17.7922 10.3368 18.5879 10.3381 19.3836C10.3381 19.5692 10.3093 19.7423 10.1608 19.8717C9.88277 20.1149 9.45566 19.9874 9.35984 19.6286C9.33416 19.533 9.33103 19.4286 9.33103 19.3279C9.32915 17.7754 9.32978 16.2228 9.32978 14.6702C9.32978 14.6233 9.3279 14.5764 9.3304 14.5295C9.34857 14.2089 9.5521 13.9976 9.83768 14.0001C10.1239 14.0026 10.3268 14.2139 10.3349 14.5383C10.3437 14.8896 10.3374 15.2408 10.3374 15.5921V16.9966Z" fill="black"/>
<path d="M13.3369 14.6502C13.3363 15.4308 13.3363 16.2109 13.3363 16.9909C13.3363 17.7791 13.3375 18.5673 13.335 19.3554C13.335 19.4554 13.3275 19.5598 13.3 19.6554C13.2392 19.8655 13.0394 20.0048 12.8215 19.9942C12.5979 19.983 12.437 19.8711 12.3656 19.6561C12.3374 19.5698 12.3305 19.4723 12.3305 19.3798C12.3286 17.7885 12.3286 16.1965 12.3305 14.6045C12.3305 14.5127 12.3374 14.4145 12.3681 14.3289C12.4451 14.1176 12.6073 14.0026 12.8321 14.0026C13.057 14.002 13.216 14.1176 13.2987 14.327C13.3394 14.4295 13.3375 14.5408 13.3369 14.6502Z" fill="black"/>
<path d="M16.3348 19.2786C16.3348 19.3329 16.3367 19.3879 16.3342 19.4423C16.321 19.7805 16.1206 19.998 15.8263 19.9955C15.5338 19.9923 15.3309 19.773 15.329 19.4329C15.324 18.6216 15.3271 17.8103 15.3271 16.999C15.3278 16.1796 15.3234 15.3602 15.3296 14.5408C15.3321 14.217 15.5388 14.0039 15.8238 14.0001C16.1187 13.9958 16.3204 14.2133 16.3342 14.5502C16.3367 14.6052 16.3348 14.6595 16.3348 14.7139V19.2786Z" fill="black"/>
<path d="M19.3349 17.0097C19.3349 17.7823 19.3349 18.5542 19.3342 19.3267C19.3342 19.4048 19.3355 19.4836 19.323 19.5599C19.2791 19.8249 19.0775 19.9986 18.8251 19.9955C18.5727 19.9924 18.376 19.8142 18.336 19.548C18.3259 19.4792 18.3272 19.408 18.3272 19.338V14.6565C18.3272 14.5864 18.3259 14.5158 18.336 14.4464C18.376 14.1808 18.5733 14.0033 18.8251 14.0002C19.0775 13.997 19.2797 14.1714 19.323 14.4358C19.3355 14.5121 19.3342 14.5908 19.3342 14.669C19.3349 15.449 19.3349 16.229 19.3349 17.0097Z" fill="black"/>
</svg>
