<svg width="48" height="48" viewBox="0 0 48 48" fill="none" xmlns="http://www.w3.org/2000/svg">
<rect width="48" height="48" rx="10" fill="#0FD200"/>
<path d="M30 18H28C28 15.79 26.21 14 24 14C21.79 14 20 15.79 20 18H18C16.9 18 16 18.9 16 20V32C16 33.1 16.9 34 18 34H30C31.1 34 32 33.1 32 32V20C32 18.9 31.1 18 30 18ZM22 22C22 22.55 21.55 23 21 23C20.45 23 20 22.55 20 22V20H22V22ZM24 16C25.1 16 26 16.9 26 18H22C22 16.9 22.9 16 24 16ZM28 22C28 22.55 27.55 23 27 23C26.45 23 26 22.55 26 22V20H28V22Z" fill="white"/>
</svg>
