<svg width="14" height="18" viewBox="0 0 14 18" fill="none" xmlns="http://www.w3.org/2000/svg">
<path d="M6.9987 9.0013C6.08203 9.0013 5.33203 8.2513 5.33203 7.33464C5.33203 6.41797 6.08203 5.66797 6.9987 5.66797C7.91536 5.66797 8.66536 6.41797 8.66536 7.33464C8.66536 8.2513 7.91536 9.0013 6.9987 9.0013ZM11.9987 7.5013C11.9987 4.4763 9.79036 2.33464 6.9987 2.33464C4.20703 2.33464 1.9987 4.4763 1.9987 7.5013C1.9987 9.4513 3.6237 12.0346 6.9987 15.118C10.3737 12.0346 11.9987 9.4513 11.9987 7.5013ZM6.9987 0.667969C10.4987 0.667969 13.6654 3.3513 13.6654 7.5013C13.6654 10.268 11.4404 13.543 6.9987 17.3346C2.55703 13.543 0.332031 10.268 0.332031 7.5013C0.332031 3.3513 3.4987 0.667969 6.9987 0.667969Z" fill="#111827"/>
</svg>
